<?xml version="1.0" standalone="no"?>
<!DOCTYPE svg PUBLIC "-//W3C//DTD SVG 20010904//EN"
 "http://www.w3.org/TR/2001/REC-SVG-20010904/DTD/svg10.dtd">
<svg version="1.0" xmlns="http://www.w3.org/2000/svg"
 width="700.000000pt" height="700.000000pt" viewBox="0 0 700.000000 700.000000"
 preserveAspectRatio="xMidYMid meet">
<metadata>
Created by potrace 1.14, written by Peter Selinger 2001-2017
</metadata>
<g transform="translate(0.000000,700.000000) scale(0.100000,-0.100000)"
fill="#000000" stroke="none">
<path d="M5282 4530 c-244 -5 -242 -5 -242 -67 0 -39 22 -63 58 -63 855 -3
943 -7 1088 -55 289 -97 518 -330 568 -580 26 -126 18 -361 -19 -538 -31 -152
-140 -327 -260 -420 -124 -95 -318 -165 -535 -193 -30 -4 -197 -8 -370 -9
-343 -2 -361 1 -381 53 -6 16 -10 177 -10 417 -1 340 -3 392 -16 408 -19 20
-61 22 -98 5 l-25 -11 3 -485 c4 -478 4 -486 25 -502 19 -16 61 -17 459 -15
241 1 449 5 463 8 14 3 57 11 95 17 141 21 318 90 435 170 272 185 426 517
415 900 -7 254 -101 474 -278 653 -148 148 -356 253 -562 282 -23 3 -52 7 -65
10 -82 16 -415 22 -748 15z"/>
<path d="M82 4506 c-16 -21 -17 -88 -17 -993 l0 -971 24 -26 c33 -35 65 -40
246 -37 88 1 354 4 590 5 237 1 436 5 443 10 34 21 30 97 -5 111 -9 3 -249 6
-532 6 -567 1 -565 0 -597 61 -17 31 -18 96 -20 926 -2 1000 4 924 -74 928
-31 1 -44 -3 -58 -20z"/>
<path d="M2166 4507 c-16 -12 -17 -69 -18 -1007 l0 -994 22 -18 c26 -21 90
-15 105 10 10 18 12 148 14 1111 1 547 2 564 19 547 15 -13 117 -179 197 -318
14 -25 239 -402 448 -753 99 -165 190 -309 203 -321 29 -28 57 -22 89 20 21
28 185 304 185 311 0 2 32 56 70 121 39 64 70 118 70 120 0 1 86 150 191 331
106 180 205 353 221 384 27 53 54 76 88 75 13 -1 15 -98 17 -804 1 -442 4
-810 7 -818 15 -38 117 -40 137 -2 7 13 10 120 10 307 -1 157 -3 598 -5 978
-2 655 -4 694 -21 713 -23 26 -84 27 -111 2 -15 -14 -209 -344 -294 -499 -9
-15 -33 -57 -54 -93 -21 -36 -48 -81 -58 -100 -11 -19 -37 -64 -58 -100 -21
-36 -48 -84 -61 -107 -131 -230 -385 -653 -391 -651 -6 3 -226 375 -338 573
-161 285 -544 937 -565 963 -22 25 -34 32 -64 32 -20 0 -45 -6 -55 -13z"/>
</g>
</svg>
