<?xml version="1.0" encoding="utf-8"?>
<!-- Generator: Adobe Illustrator 27.1.1, SVG Export Plug-In . SVG Version: 6.00 Build 0)  -->
<svg version="1.1" id="Warstwa_1" xmlns="http://www.w3.org/2000/svg" xmlns:xlink="http://www.w3.org/1999/xlink" x="0px" y="0px"
	 viewBox="0 0 250 150" style="enable-background:new 0 0 250 150;" xml:space="preserve">
<style type="text/css">
	.st0{fill:url(#SVGID_1_);}
	.st1{fill:url(#SVGID_00000083785101777330956300000008631016549746228869_);}
	.st2{fill:url(#SVGID_00000148630961148335338380000013897971331822663062_);}
	.st3{fill:url(#SVGID_00000039852665827396648240000002972020158631643816_);}
	.st4{fill:url(#SVGID_00000069372819768680033160000003513857689540701324_);}
	.st5{fill:url(#SVGID_00000048495344183487122270000011483900697007477163_);}
	.st6{fill:url(#SVGID_00000173859478228595700930000002034221001155290020_);}
	.st7{fill:url(#SVGID_00000104694224326965577880000006888711973725536644_);}
	.st8{fill:url(#SVGID_00000049204273762423498830000009382470890828282002_);}
	.st9{fill:url(#SVGID_00000155851373126323733500000000515513911918781335_);}
	.st10{fill:url(#SVGID_00000113331869238698293820000003306958828263248042_);}
	.st11{fill:url(#SVGID_00000030471809248186617420000002018118332295480201_);}
	.st12{fill:url(#SVGID_00000089534419586465562900000008327924121968981919_);}
	.st13{fill:url(#SVGID_00000095340305356511042410000007833335160967640761_);}
	.st14{fill:url(#SVGID_00000038413157733365400870000014593050757895993779_);}
	.st15{fill:url(#SVGID_00000021820415489689113580000002087284782860862381_);}
	.st16{fill:url(#SVGID_00000062180257824497237800000003503550119605510328_);}
	.st17{fill:url(#SVGID_00000177483064162313550830000002451802445846862741_);}
	.st18{fill:url(#SVGID_00000062911498461821651020000005428103209758334112_);}
</style>
<g>
	<g>
		<linearGradient id="SVGID_1_" gradientUnits="userSpaceOnUse" x1="-26.0913" y1="72.549" x2="306.1721" y2="72.549">
			<stop  offset="0" style="stop-color:#FDC800"/>
			<stop  offset="0.0252" style="stop-color:#FCC400"/>
			<stop  offset="0.2496" style="stop-color:#F5A315"/>
			<stop  offset="0.4656" style="stop-color:#EF8728"/>
			<stop  offset="0.668" style="stop-color:#EB722E"/>
			<stop  offset="0.8517" style="stop-color:#E96431"/>
			<stop  offset="1" style="stop-color:#E95F32"/>
		</linearGradient>
		<path class="st0" d="M92.35,62.58c0.03,6.29,0.06,12.58,0.06,18.87c0,0.63,0.34,1.65-0.82,1.59c-1.13-0.05-0.71-1.07-0.72-1.68
			c-0.03-5.07-0.02-10.13-0.02-15.2c-0.94-0.13-0.98,0.63-1.22,1.04c-2.21,3.75-4.38,7.53-6.56,11.3c-1.39,2.41-1.4,2.4-2.87-0.08
			c-2.47-4.17-4.94-8.33-7.42-12.49c-0.09-0.09-0.19-0.18-0.28-0.27c-0.02,0.13-0.03,0.26-0.05,0.39
			c-0.01,5.07-0.01,10.15-0.07,15.22c-0.01,0.65,0.49,1.85-0.81,1.76c-1.03-0.08-0.57-1.15-0.57-1.77c-0.04-5.86-0.04-11.72,0-17.58
			c0-0.53-0.47-1.38,0.53-1.58c0.83-0.17,1.06,0.55,1.38,1.09c2.86,4.93,5.72,9.86,8.74,15.07c1.38-2.34,2.64-4.46,3.88-6.6
			c1.61-2.78,3.2-5.57,4.82-8.34c0.37-0.64,0.6-1.56,1.71-1.16C92.16,62.29,92.25,62.44,92.35,62.58z"/>
		
			<linearGradient id="SVGID_00000134945751830005255060000003426459470007597225_" gradientUnits="userSpaceOnUse" x1="-26.0913" y1="75.2236" x2="306.1721" y2="75.2236">
			<stop  offset="0" style="stop-color:#FDC800"/>
			<stop  offset="0.0252" style="stop-color:#FCC400"/>
			<stop  offset="0.2496" style="stop-color:#F5A315"/>
			<stop  offset="0.4656" style="stop-color:#EF8728"/>
			<stop  offset="0.668" style="stop-color:#EB722E"/>
			<stop  offset="0.8517" style="stop-color:#E96431"/>
			<stop  offset="1" style="stop-color:#E95F32"/>
		</linearGradient>
		<path style="fill:url(#SVGID_00000134945751830005255060000003426459470007597225_);" d="M153.48,75.2c0-4.26,2.35-7.1,6.58-7.91
			c3.2-0.61,6.66,1.58,7.91,4.91c0.58,1.55,0.41,2.48-1.41,2.79c-3.25,0.56-6.49,1.24-9.74,1.79c-1.53,0.26-1.76,0.88-0.91,2.1
			c2.18,3.13,5.71,3.96,9.77,1.67c0.41-0.23,0.75-1.13,1.37-0.35c0.65,0.82-0.23,1.19-0.68,1.48c-2.68,1.71-5.51,2.15-8.47,0.74
			C154.97,81.03,153.48,78.58,153.48,75.2z M154.91,74.57c-0.23,0.9,0.08,1.53,1.43,1.25c3.06-0.62,6.13-1.23,9.2-1.81
			c1.18-0.22,1.47-0.67,0.98-1.85c-1.11-2.7-4.07-3.89-6.63-3.48C157.12,69.13,154.96,71.68,154.91,74.57z"/>
		
			<linearGradient id="SVGID_00000174604182386118196380000016237977061422854033_" gradientUnits="userSpaceOnUse" x1="-26.0913" y1="78.2483" x2="306.1721" y2="78.2483">
			<stop  offset="0" style="stop-color:#FDC800"/>
			<stop  offset="0.0252" style="stop-color:#FCC400"/>
			<stop  offset="0.2496" style="stop-color:#F5A315"/>
			<stop  offset="0.4656" style="stop-color:#EF8728"/>
			<stop  offset="0.668" style="stop-color:#EB722E"/>
			<stop  offset="0.8517" style="stop-color:#E96431"/>
			<stop  offset="1" style="stop-color:#E95F32"/>
		</linearGradient>
		<path style="fill:url(#SVGID_00000174604182386118196380000016237977061422854033_);" d="M177.67,81.24
			c1.85-4.12,3.5-7.82,5.16-11.51c0.23-0.52,0.5-1.03,0.73-1.55c0.22-0.5,0.67-0.58,1.07-0.42c0.57,0.23,0.31,0.68,0.13,1.07
			c-0.77,1.69-1.53,3.38-2.29,5.07c-1.79,3.97-3.59,7.93-5.38,11.9c-1.2,2.64-4.38,4.49-7.18,2.61c-0.47-0.31-1.13-0.55-0.71-1.28
			c0.49-0.85,0.99-0.14,1.39,0.12c1.58,1.02,3.12,0.68,4.18-0.59c1.13-1.35,2.46-2.81,1.47-4.95c-1.93-4.14-3.81-8.3-5.64-12.49
			c-0.23-0.53-1.22-1.29-0.21-1.77c1.01-0.48,1.25,0.64,1.56,1.32c1.65,3.64,3.27,7.29,4.9,10.94
			C177.02,80.08,177.25,80.44,177.67,81.24z"/>
		
			<linearGradient id="SVGID_00000111895281138417917270000017787881264332275328_" gradientUnits="userSpaceOnUse" x1="-26.0913" y1="75.2245" x2="306.1721" y2="75.2245">
			<stop  offset="0" style="stop-color:#FDC800"/>
			<stop  offset="0.0252" style="stop-color:#FCC400"/>
			<stop  offset="0.2496" style="stop-color:#F5A315"/>
			<stop  offset="0.4656" style="stop-color:#EF8728"/>
			<stop  offset="0.668" style="stop-color:#EB722E"/>
			<stop  offset="0.8517" style="stop-color:#E96431"/>
			<stop  offset="1" style="stop-color:#E95F32"/>
		</linearGradient>
		<path style="fill:url(#SVGID_00000111895281138417917270000017787881264332275328_);" d="M97.55,75.21
			c0.01-4.57,3.38-8.16,7.75-7.92c5.04,0.28,7.77,2.95,7.81,7.97c0.05,5.18-3.41,7.86-7.85,7.9
			C100.76,83.21,97.54,79.82,97.55,75.21z M111.44,75.24c0.31-4.44-2.62-6.55-6.56-6.57c-3.13-0.01-6.06,2.73-5.91,7
			c0.11,3.14,2.9,6.2,5.9,6.17C109.43,81.8,111.92,78.71,111.44,75.24z"/>
		
			<linearGradient id="SVGID_00000160877179570299070330000004308157338349128832_" gradientUnits="userSpaceOnUse" x1="-26.0913" y1="72.0286" x2="306.1721" y2="72.0286">
			<stop  offset="0" style="stop-color:#FDC800"/>
			<stop  offset="0.0252" style="stop-color:#FCC400"/>
			<stop  offset="0.2496" style="stop-color:#F5A315"/>
			<stop  offset="0.4656" style="stop-color:#EF8728"/>
			<stop  offset="0.668" style="stop-color:#EB722E"/>
			<stop  offset="0.8517" style="stop-color:#E96431"/>
			<stop  offset="1" style="stop-color:#E95F32"/>
		</linearGradient>
		<path style="fill:url(#SVGID_00000160877179570299070330000004308157338349128832_);" d="M150.96,67.94
			c-1.73,1.62-3.35,3.22-5.06,4.71c-0.91,0.79-0.9,1.38-0.15,2.28c1.75,2.08,3.4,4.24,5.09,6.38c0.39,0.49,1.05,1.12,0.43,1.66
			c-0.84,0.72-1.17-0.28-1.58-0.79c-1.65-2.07-3.37-4.09-4.93-6.23c-0.83-1.13-1.36-1.01-2.34-0.16c-1.88,1.62-3.68,3.17-3.04,6.05
			c0.1,0.47,0.23,1.28-0.71,1.21c-0.74-0.06-0.55-0.72-0.55-1.18c-0.01-6.59-0.02-13.17,0-19.76c0-0.51-0.25-1.28,0.67-1.28
			c1.05,0,0.76,0.86,0.76,1.43c0.02,4.22,0.01,8.45,0.02,12.67c0,0.34,0.03,0.69,0.08,1.58c2.37-2.15,4.44-4.03,6.5-5.92
			c0.79-0.72,1.6-1.43,2.37-2.18C149.17,67.78,149.87,67.45,150.96,67.94z"/>
		
			<linearGradient id="SVGID_00000008865729432731893010000006293348610213196472_" gradientUnits="userSpaceOnUse" x1="-26.0913" y1="75.1375" x2="306.1721" y2="75.1375">
			<stop  offset="0" style="stop-color:#FDC800"/>
			<stop  offset="0.0252" style="stop-color:#FCC400"/>
			<stop  offset="0.2496" style="stop-color:#F5A315"/>
			<stop  offset="0.4656" style="stop-color:#EF8728"/>
			<stop  offset="0.668" style="stop-color:#EB722E"/>
			<stop  offset="0.8517" style="stop-color:#E96431"/>
			<stop  offset="1" style="stop-color:#E95F32"/>
		</linearGradient>
		<path style="fill:url(#SVGID_00000008865729432731893010000006293348610213196472_);" d="M117.87,75.04
			c0-2.07-0.02-4.15,0.02-6.22c0.01-0.5-0.31-1.25,0.52-1.41c0.88-0.17,0.79,0.54,0.88,1.1c0.23,1.53,0.93,0.78,1.57,0.3
			c1.68-1.28,3.62-1.87,5.65-1.45c3.57,0.75,4.94,1.82,5.29,6.3c0.21,2.7,0.05,5.43,0.04,8.15c0,0.55,0.09,1.26-0.76,1.26
			c-0.9,0-0.7-0.75-0.7-1.27c-0.02-2.65,0.02-5.29-0.02-7.94c-0.06-3.37-1.62-4.93-5.14-5.23c-2.57-0.22-5.01,1.6-5.62,4.27
			c-0.64,2.83-0.16,5.71-0.33,8.56c-0.04,0.61,0.4,1.67-0.79,1.58c-0.96-0.07-0.58-1-0.59-1.56
			C117.84,79.33,117.87,77.18,117.87,75.04z"/>
	</g>
	<g>
		
			<linearGradient id="SVGID_00000156549193554892912140000011173937152537824677_" gradientUnits="userSpaceOnUse" x1="-26.0913" y1="72.5803" x2="306.1721" y2="72.5803">
			<stop  offset="0" style="stop-color:#FDC800"/>
			<stop  offset="0.0252" style="stop-color:#FCC400"/>
			<stop  offset="0.2496" style="stop-color:#F5A315"/>
			<stop  offset="0.4656" style="stop-color:#EF8728"/>
			<stop  offset="0.668" style="stop-color:#EB722E"/>
			<stop  offset="0.8517" style="stop-color:#E96431"/>
			<stop  offset="1" style="stop-color:#E95F32"/>
		</linearGradient>
		<path style="fill:url(#SVGID_00000156549193554892912140000011173937152537824677_);" d="M189.3,82.77
			c-0.02-2.94-0.06-5.87-0.06-8.81c0-0.51-0.25-1.3,0.6-1.37c1.07-0.09,0.78,0.81,0.79,1.38c0.03,2.15,0.04,4.3,0,6.45
			c-0.01,0.86,0.21,1.38,1.18,1.34c2.43-0.1,4.87,0.18,7.3-0.2c5.7-0.89,8.18-4.28,7.81-10.74c-0.22-3.93-4.17-7.24-8.92-7.39
			c-2.58-0.08-5.16-0.02-7.74-0.03c-0.49,0-1.06,0.1-1.03-0.7c0.02-0.6,0.42-0.66,0.88-0.65c3.29,0.06,6.64-0.23,9.87,0.25
			c5.52,0.81,9.13,5.55,8.68,10.79c-0.6,6.82-5.14,9.69-10.75,9.99c-2.72,0.14-5.44,0.01-8.17,0
			C189.59,82.97,189.45,82.87,189.3,82.77z"/>
		
			<linearGradient id="SVGID_00000098934950913354260030000016882492763695661470_" gradientUnits="userSpaceOnUse" x1="-26.0913" y1="75.2361" x2="306.1721" y2="75.2361">
			<stop  offset="0" style="stop-color:#FDC800"/>
			<stop  offset="0.0252" style="stop-color:#FCC400"/>
			<stop  offset="0.2496" style="stop-color:#F5A315"/>
			<stop  offset="0.4656" style="stop-color:#EF8728"/>
			<stop  offset="0.668" style="stop-color:#EB722E"/>
			<stop  offset="0.8517" style="stop-color:#E96431"/>
			<stop  offset="1" style="stop-color:#E95F32"/>
		</linearGradient>
		<path style="fill:url(#SVGID_00000098934950913354260030000016882492763695661470_);" d="M219.8,83.19
			c-4.3-0.05-7.67-3.04-8.15-7.23c-0.43-3.74,2.15-7.51,6.01-8.47c3.46-0.86,7.49,0.94,8.8,4.89c0.56,1.68,0.07,2.32-1.49,2.61
			c-3.07,0.57-6.13,1.18-9.2,1.75c-2.29,0.43-2.52,1.01-0.97,2.78c2.3,2.64,5.51,3.15,9.24,1.04c0.43-0.24,0.76-1.11,1.39-0.38
			c0.68,0.8-0.18,1.14-0.63,1.48C223.33,82.79,221.62,83.22,219.8,83.19z M219.36,68.58c-3.41,0.04-6.22,2.98-6.02,6.23
			c0.05,0.84,0.28,1.19,1.14,1.02c3.2-0.63,6.39-1.28,9.59-1.85c1.19-0.21,1.26-0.77,0.87-1.75
			C224.07,70.07,221.8,68.55,219.36,68.58z"/>
		
			<linearGradient id="SVGID_00000173857779080697552820000017672673350222906026_" gradientUnits="userSpaceOnUse" x1="-26.0913" y1="75.4273" x2="306.1721" y2="75.4273">
			<stop  offset="0" style="stop-color:#FDC800"/>
			<stop  offset="0.0252" style="stop-color:#FCC400"/>
			<stop  offset="0.2496" style="stop-color:#F5A315"/>
			<stop  offset="0.4656" style="stop-color:#EF8728"/>
			<stop  offset="0.668" style="stop-color:#EB722E"/>
			<stop  offset="0.8517" style="stop-color:#E96431"/>
			<stop  offset="1" style="stop-color:#E95F32"/>
		</linearGradient>
		<path style="fill:url(#SVGID_00000173857779080697552820000017672673350222906026_);" d="M235.97,81.38
			c1.9-4.23,3.62-8.05,5.35-11.88c0.23-0.52,0.46-1.05,0.78-1.51c0.28-0.41,0.78-0.41,1.15-0.18c0.43,0.27,0.08,0.63-0.05,0.92
			c-2.02,4.48-4.02,8.98-6.09,13.44c-0.63,1.34-1.65,1.36-2.27,0.04c-2.07-4.46-4.06-8.96-6.07-13.45
			c-0.14-0.32-0.62-0.78,0.06-1.02c0.4-0.14,0.89-0.12,1.16,0.31c0.26,0.42,0.43,0.9,0.64,1.35
			C232.34,73.24,234.05,77.07,235.97,81.38z"/>
	</g>
	
		<linearGradient id="SVGID_00000084516720424546850350000010193081105154288038_" gradientUnits="userSpaceOnUse" x1="-26.0913" y1="75.2648" x2="306.1721" y2="75.2648">
		<stop  offset="0" style="stop-color:#FDC800"/>
		<stop  offset="0.0252" style="stop-color:#FCC400"/>
		<stop  offset="0.2496" style="stop-color:#F5A315"/>
		<stop  offset="0.4656" style="stop-color:#EF8728"/>
		<stop  offset="0.668" style="stop-color:#EB722E"/>
		<stop  offset="0.8517" style="stop-color:#E96431"/>
		<stop  offset="1" style="stop-color:#E95F32"/>
	</linearGradient>
	<path style="fill:url(#SVGID_00000084516720424546850350000010193081105154288038_);" d="M45.22,75.26c0,5.52-3.82,7.98-7.87,8
		c-3.33,0.02-7.29-3.45-7.23-8.11c0.06-4.31,3.22-7.93,7.49-7.88C42.36,67.33,45.22,69.69,45.22,75.26z M37.4,81.85
		c3.19,0.13,6.42-1.77,6.59-6.54c0.12-3.51-1.83-6.51-6.42-6.69c-3.5-0.14-6.28,3.3-6.16,6.29C31.57,78.94,33.89,81.83,37.4,81.85z"
		/>
	
		<linearGradient id="SVGID_00000078740855855354445660000003532010225493175459_" gradientUnits="userSpaceOnUse" x1="-26.0913" y1="75.147" x2="306.1721" y2="75.147">
		<stop  offset="0" style="stop-color:#FDC800"/>
		<stop  offset="0.0252" style="stop-color:#FCC400"/>
		<stop  offset="0.2496" style="stop-color:#F5A315"/>
		<stop  offset="0.4656" style="stop-color:#EF8728"/>
		<stop  offset="0.668" style="stop-color:#EB722E"/>
		<stop  offset="0.8517" style="stop-color:#E96431"/>
		<stop  offset="1" style="stop-color:#E95F32"/>
	</linearGradient>
	<path style="fill:url(#SVGID_00000078740855855354445660000003532010225493175459_);" d="M51.75,70.32
		c2.44-2.83,5.19-3.69,8.44-2.7c2.38,0.72,3.77,2.44,3.91,4.85c0.19,3.14,0.09,6.29,0.09,9.44c0,0.47,0.11,1.09-0.62,1.15
		c-0.92,0.07-0.77-0.66-0.77-1.19c-0.02-2.5,0.01-5.01-0.02-7.51c-0.05-3.84-1.84-5.74-5.33-5.75c-3.13,0-5.5,2.16-5.71,5.46
		c-0.16,2.49-0.03,5.01-0.08,7.51c-0.01,0.55,0.34,1.48-0.69,1.47c-1-0.01-0.69-0.92-0.69-1.49c-0.03-4.08-0.04-8.16,0.01-12.24
		c0.01-0.66-0.53-1.88,0.66-1.89c1.18,0,0.51,1.21,0.69,1.87C51.72,69.51,51.71,69.73,51.75,70.32z"/>
	
		<linearGradient id="SVGID_00000121982149974735375700000010314329524240639160_" gradientUnits="userSpaceOnUse" x1="-26.0913" y1="62.3435" x2="306.1721" y2="62.3435">
		<stop  offset="0" style="stop-color:#FDC800"/>
		<stop  offset="0.0252" style="stop-color:#FCC400"/>
		<stop  offset="0.2496" style="stop-color:#F5A315"/>
		<stop  offset="0.4656" style="stop-color:#EF8728"/>
		<stop  offset="0.668" style="stop-color:#EB722E"/>
		<stop  offset="0.8517" style="stop-color:#E96431"/>
		<stop  offset="1" style="stop-color:#E95F32"/>
	</linearGradient>
	<path style="fill:url(#SVGID_00000121982149974735375700000010314329524240639160_);" d="M25.43,62.28
		c0.05,0.66-0.09,1.16-0.86,1.18c-0.75,0.02-1.24-0.32-1.26-1.08c-0.02-0.75,0.44-1.15,1.19-1.16
		C25.23,61.21,25.48,61.65,25.43,62.28z"/>
	
		<linearGradient id="SVGID_00000071543188811269217940000011127463464895542923_" gradientUnits="userSpaceOnUse" x1="-26.0913" y1="75.2249" x2="306.1721" y2="75.2249">
		<stop  offset="0" style="stop-color:#FDC800"/>
		<stop  offset="0.0252" style="stop-color:#FCC400"/>
		<stop  offset="0.2496" style="stop-color:#F5A315"/>
		<stop  offset="0.4656" style="stop-color:#EF8728"/>
		<stop  offset="0.668" style="stop-color:#EB722E"/>
		<stop  offset="0.8517" style="stop-color:#E96431"/>
		<stop  offset="1" style="stop-color:#E95F32"/>
	</linearGradient>
	<path style="fill:url(#SVGID_00000071543188811269217940000011127463464895542923_);" d="M25.08,67.61
		c-0.48-0.48-0.94-0.67-1.31,0.12c0,5,0,9.99,0,14.99c0.36,0.8,0.83,0.59,1.31,0.13C25.38,77.77,25.38,72.69,25.08,67.61z"/>
	
		<linearGradient id="SVGID_00000031930294407881555800000007020607433294909077_" gradientUnits="userSpaceOnUse" x1="-26.0913" y1="62.3532" x2="306.1721" y2="62.3532">
		<stop  offset="0" style="stop-color:#FDC800"/>
		<stop  offset="0.0252" style="stop-color:#FCC400"/>
		<stop  offset="0.2496" style="stop-color:#F5A315"/>
		<stop  offset="0.4656" style="stop-color:#EF8728"/>
		<stop  offset="0.668" style="stop-color:#EB722E"/>
		<stop  offset="0.8517" style="stop-color:#E96431"/>
		<stop  offset="1" style="stop-color:#E95F32"/>
	</linearGradient>
	<path style="fill:url(#SVGID_00000031930294407881555800000007020607433294909077_);" d="M6.94,62.15
		c-0.11,0.14-0.22,0.27-0.33,0.41C6.53,62.27,6.64,62.13,6.94,62.15z"/>
	
		<linearGradient id="SVGID_00000140715975150478769140000015573974666916865681_" gradientUnits="userSpaceOnUse" x1="-26.0913" y1="62.3562" x2="306.1721" y2="62.3562">
		<stop  offset="0" style="stop-color:#FDC800"/>
		<stop  offset="0.0252" style="stop-color:#FCC400"/>
		<stop  offset="0.2496" style="stop-color:#F5A315"/>
		<stop  offset="0.4656" style="stop-color:#EF8728"/>
		<stop  offset="0.668" style="stop-color:#EB722E"/>
		<stop  offset="0.8517" style="stop-color:#E96431"/>
		<stop  offset="1" style="stop-color:#E95F32"/>
	</linearGradient>
	<path style="fill:url(#SVGID_00000140715975150478769140000015573974666916865681_);" d="M8.1,62.56
		c-0.11-0.14-0.21-0.27-0.32-0.41C8.08,62.14,8.19,62.27,8.1,62.56z"/>
	
		<linearGradient id="SVGID_00000025428018274655865670000013076360414068822407_" gradientUnits="userSpaceOnUse" x1="-26.0913" y1="62.3654" x2="306.1721" y2="62.3654">
		<stop  offset="0" style="stop-color:#FDC800"/>
		<stop  offset="0.0252" style="stop-color:#FCC400"/>
		<stop  offset="0.2496" style="stop-color:#F5A315"/>
		<stop  offset="0.4656" style="stop-color:#EF8728"/>
		<stop  offset="0.668" style="stop-color:#EB722E"/>
		<stop  offset="0.8517" style="stop-color:#E96431"/>
		<stop  offset="1" style="stop-color:#E95F32"/>
	</linearGradient>
	<path style="fill:url(#SVGID_00000025428018274655865670000013076360414068822407_);" d="M92.35,62.58
		c-0.09-0.15-0.19-0.29-0.28-0.44C92.34,62.18,92.45,62.31,92.35,62.58z"/>
	
		<linearGradient id="SVGID_00000183942714108533122160000003469301404699025839_" gradientUnits="userSpaceOnUse" x1="-26.0913" y1="65.8432" x2="306.1721" y2="65.8432">
		<stop  offset="0" style="stop-color:#FDC800"/>
		<stop  offset="0.0252" style="stop-color:#FCC400"/>
		<stop  offset="0.2496" style="stop-color:#F5A315"/>
		<stop  offset="0.4656" style="stop-color:#EF8728"/>
		<stop  offset="0.668" style="stop-color:#EB722E"/>
		<stop  offset="0.8517" style="stop-color:#E96431"/>
		<stop  offset="1" style="stop-color:#E95F32"/>
	</linearGradient>
	<path style="fill:url(#SVGID_00000183942714108533122160000003469301404699025839_);" d="M72.46,66.03
		c0.02-0.13,0.03-0.26,0.05-0.39c0.09,0.09,0.19,0.18,0.28,0.27C72.7,66.02,72.59,66.05,72.46,66.03z"/>
	
		<linearGradient id="SVGID_00000039834236767947611010000005498561411905568695_" gradientUnits="userSpaceOnUse" x1="-26.0913" y1="72.6385" x2="306.1721" y2="72.6385">
		<stop  offset="0" style="stop-color:#FDC800"/>
		<stop  offset="0.0252" style="stop-color:#FCC400"/>
		<stop  offset="0.2496" style="stop-color:#F5A315"/>
		<stop  offset="0.4656" style="stop-color:#EF8728"/>
		<stop  offset="0.668" style="stop-color:#EB722E"/>
		<stop  offset="0.8517" style="stop-color:#E96431"/>
		<stop  offset="1" style="stop-color:#E95F32"/>
	</linearGradient>
	<path style="fill:url(#SVGID_00000039834236767947611010000005498561411905568695_);" d="M18.8,81.77
		c-2.92-0.03-5.85-0.09-8.77,0.02c-1.5,0.06-1.93-0.42-1.92-1.91c0.07-5.77,0-11.54-0.02-17.31c-0.11-0.14-0.21-0.27-0.32-0.41
		c-0.28,0-0.56,0-0.84,0c-0.11,0.14-0.22,0.27-0.33,0.41c-0.02,6.29,0,12.58-0.07,18.86c-0.02,1.31,0.37,1.74,1.69,1.71
		c3.86-0.09,7.72-0.06,11.58-0.08c0.29,0.09,0.39-0.04,0.37-0.31C20.38,81.47,19.42,81.78,18.8,81.77z"/>
	
		<linearGradient id="SVGID_00000150797880996398184400000018414051055251627138_" gradientUnits="userSpaceOnUse" x1="-26.0913" y1="82.931" x2="306.1721" y2="82.931">
		<stop  offset="0" style="stop-color:#FDC800"/>
		<stop  offset="0.0252" style="stop-color:#FCC400"/>
		<stop  offset="0.2496" style="stop-color:#F5A315"/>
		<stop  offset="0.4656" style="stop-color:#EF8728"/>
		<stop  offset="0.668" style="stop-color:#EB722E"/>
		<stop  offset="0.8517" style="stop-color:#E96431"/>
		<stop  offset="1" style="stop-color:#E95F32"/>
	</linearGradient>
	<path style="fill:url(#SVGID_00000150797880996398184400000018414051055251627138_);" d="M189.3,82.77
		c0.14,0.1,0.28,0.21,0.43,0.31C189.46,83.14,189.32,83.04,189.3,82.77z"/>
</g>
</svg>
