<?xml version="1.0" encoding="utf-8"?>
<!-- Generator: Adobe Illustrator 27.1.1, SVG Export Plug-In . SVG Version: 6.00 Build 0)  -->
<svg version="1.1" id="Warstwa_1" xmlns="http://www.w3.org/2000/svg" xmlns:xlink="http://www.w3.org/1999/xlink" x="0px" y="0px"
	 viewBox="0 0 32 32" style="enable-background:new 0 0 32 32;" xml:space="preserve">
<style type="text/css">
	.st0{fill:url(#SVGID_1_);}
	.st1{fill:url(#SVGID_00000101097866208320344060000011133808549195474349_);}
	.st2{fill:url(#SVGID_00000103978530379934312150000005843049729843501203_);}
</style>
<g>
	<linearGradient id="SVGID_1_" gradientUnits="userSpaceOnUse" x1="-8.5314" y1="16" x2="38.9746" y2="16">
		<stop  offset="0" style="stop-color:#FDC800"/>
		<stop  offset="0.0252" style="stop-color:#FCC400"/>
		<stop  offset="0.2496" style="stop-color:#F5A315"/>
		<stop  offset="0.4656" style="stop-color:#EF8728"/>
		<stop  offset="0.668" style="stop-color:#EB722E"/>
		<stop  offset="0.8517" style="stop-color:#E96431"/>
		<stop  offset="1" style="stop-color:#E95F32"/>
	</linearGradient>
	<path class="st0" d="M19.2,11.75c0.01,2.68,0.03,5.36,0.03,8.04c0,0.27,0.15,0.7-0.35,0.68c-0.48-0.02-0.3-0.45-0.31-0.72
		c-0.01-2.16-0.01-4.32-0.01-6.48c-0.4-0.06-0.42,0.27-0.52,0.44c-0.94,1.6-1.86,3.21-2.79,4.81c-0.59,1.03-0.6,1.02-1.22-0.03
		c-1.05-1.78-2.11-3.55-3.16-5.32c-0.04-0.04-0.08-0.08-0.12-0.12c-0.01,0.05-0.01,0.11-0.02,0.16c-0.01,2.16,0,4.32-0.03,6.48
		c0,0.28,0.21,0.79-0.35,0.75c-0.44-0.03-0.24-0.49-0.24-0.75c-0.02-2.5-0.02-4.99,0-7.49c0-0.23-0.2-0.59,0.23-0.67
		c0.35-0.07,0.45,0.23,0.59,0.47c1.22,2.1,2.44,4.2,3.72,6.42c0.59-1,1.12-1.9,1.65-2.81c0.69-1.18,1.36-2.37,2.05-3.55
		c0.16-0.27,0.26-0.66,0.73-0.49C19.12,11.63,19.16,11.69,19.2,11.75z"/>
	
		<linearGradient id="SVGID_00000078729784563212018490000014294689396415713700_" gradientUnits="userSpaceOnUse" x1="-5.9883" y1="16" x2="41.5177" y2="16">
		<stop  offset="0" style="stop-color:#FDC800"/>
		<stop  offset="0.0252" style="stop-color:#FCC400"/>
		<stop  offset="0.2496" style="stop-color:#F5A315"/>
		<stop  offset="0.4656" style="stop-color:#EF8728"/>
		<stop  offset="0.668" style="stop-color:#EB722E"/>
		<stop  offset="0.8517" style="stop-color:#E96431"/>
		<stop  offset="1" style="stop-color:#E95F32"/>
	</linearGradient>
	<path style="fill:url(#SVGID_00000078729784563212018490000014294689396415713700_);" d="M22.75,20.34
		c-0.01-1.25-0.03-2.5-0.03-3.75c0-0.22-0.11-0.55,0.25-0.58c0.45-0.04,0.33,0.35,0.34,0.59c0.01,0.92,0.02,1.83,0,2.75
		c-0.01,0.36,0.09,0.59,0.5,0.57c1.04-0.04,2.07,0.08,3.11-0.09c2.43-0.38,3.48-1.82,3.33-4.58c-0.09-1.68-1.78-3.08-3.8-3.15
		c-1.1-0.03-2.2-0.01-3.3-0.01c-0.21,0-0.45,0.04-0.44-0.3c0.01-0.26,0.18-0.28,0.37-0.28c1.4,0.02,2.83-0.1,4.2,0.11
		c2.35,0.35,3.89,2.36,3.7,4.59c-0.25,2.91-2.19,4.13-4.58,4.25c-1.16,0.06-2.32,0-3.48,0C22.87,20.43,22.81,20.38,22.75,20.34z"/>
	
		<linearGradient id="SVGID_00000004521968123706742390000010724451434705467790_" gradientUnits="userSpaceOnUse" x1="-11.0745" y1="16" x2="36.4314" y2="16">
		<stop  offset="0" style="stop-color:#FDC800"/>
		<stop  offset="0.0252" style="stop-color:#FCC400"/>
		<stop  offset="0.2496" style="stop-color:#F5A315"/>
		<stop  offset="0.4656" style="stop-color:#EF8728"/>
		<stop  offset="0.668" style="stop-color:#EB722E"/>
		<stop  offset="0.8517" style="stop-color:#E96431"/>
		<stop  offset="1" style="stop-color:#E95F32"/>
	</linearGradient>
	<path style="fill:url(#SVGID_00000004521968123706742390000010724451434705467790_);" d="M1.17,11.53c0.12,0,0.24,0,0.36,0
		c0.05,0.06,0.09,0.12,0.14,0.17c0.01,2.46,0.03,4.92,0.01,7.38c-0.01,0.64,0.18,0.84,0.82,0.82c1.24-0.05,2.49-0.02,3.73-0.01
		c0.27,0,0.67-0.13,0.59,0.41c-0.05,0.04-0.11,0.09-0.16,0.13C5,20.44,3.36,20.43,1.72,20.47C1.15,20.48,0.99,20.3,1,19.74
		c0.03-2.68,0.02-5.36,0.03-8.04C1.07,11.65,1.12,11.59,1.17,11.53z"/>
</g>
</svg>
