<?xml version="1.0" encoding="utf-8"?>
<!-- Generator: Adobe Illustrator 27.1.1, SVG Export Plug-In . SVG Version: 6.00 Build 0)  -->
<svg version="1.1" id="Warstwa_1" xmlns="http://www.w3.org/2000/svg" xmlns:xlink="http://www.w3.org/1999/xlink" x="0px" y="0px"
	 viewBox="0 0 350 150" style="enable-background:new 0 0 350 150;" xml:space="preserve">
<style type="text/css">
	.st0{fill:url(#SVGID_1_);}
	.st1{fill:url(#SVGID_00000170259964066768444920000002304405420003194257_);}
	.st2{fill:url(#SVGID_00000005264854562148197320000000043537180284738713_);}
	.st3{fill:url(#SVGID_00000146493093396662706270000017734059527557614234_);}
	.st4{fill:url(#SVGID_00000165950965982852085290000010531748362956529573_);}
	.st5{fill:url(#SVGID_00000130629685211992077660000006527284436244374659_);}
	.st6{fill:url(#SVGID_00000169517710504518923720000003357458019314942098_);}
	.st7{fill:url(#SVGID_00000013163324500392701690000010929259545557982644_);}
	.st8{fill:url(#SVGID_00000172434451475754249550000006878020920495235717_);}
	.st9{fill:url(#SVGID_00000157297422746304947990000017190624673059056789_);}
	.st10{fill:url(#SVGID_00000118357251621748616330000004627208661035891387_);}
	.st11{fill:url(#SVGID_00000067196961289739991120000000536151805775369125_);}
	.st12{fill:url(#SVGID_00000182522793051273570490000016960821331070715814_);}
	.st13{fill:url(#SVGID_00000030455210713575394660000010281891685100810900_);}
	.st14{fill:url(#SVGID_00000042722752707239267840000016738849056537044125_);}
	.st15{fill:url(#SVGID_00000088825454331170103660000016096021716698008715_);}
	.st16{fill:url(#SVGID_00000003093961334602541640000004882119880397790118_);}
	.st17{fill:url(#SVGID_00000065037444190872516070000018153207593074947500_);}
	.st18{fill:url(#SVGID_00000070812166628250094380000016588242868217634728_);}
</style>
<g>
	<g>
		<linearGradient id="SVGID_1_" gradientUnits="userSpaceOnUse" x1="-41.3869" y1="71.4898" x2="434.4675" y2="71.4898">
			<stop  offset="0" style="stop-color:#FDC800"/>
			<stop  offset="0.0252" style="stop-color:#FCC400"/>
			<stop  offset="0.2496" style="stop-color:#F5A315"/>
			<stop  offset="0.4656" style="stop-color:#EF8728"/>
			<stop  offset="0.668" style="stop-color:#EB722E"/>
			<stop  offset="0.8517" style="stop-color:#E96431"/>
			<stop  offset="1" style="stop-color:#E95F32"/>
		</linearGradient>
		<path class="st0" d="M128.23,57.22c0.04,9.01,0.09,18.02,0.09,27.03c0,0.9,0.49,2.36-1.18,2.28c-1.62-0.08-1.02-1.53-1.03-2.41
			c-0.05-7.25-0.03-14.51-0.03-21.78c-1.35-0.19-1.4,0.9-1.75,1.49c-3.17,5.37-6.27,10.78-9.39,16.18c-1.99,3.45-2,3.44-4.1-0.11
			c-3.53-5.97-7.08-11.93-10.62-17.89c-0.13-0.13-0.27-0.26-0.4-0.39c-0.02,0.18-0.04,0.37-0.07,0.55
			c-0.02,7.27-0.01,14.53-0.1,21.8c-0.01,0.93,0.7,2.65-1.16,2.51c-1.48-0.11-0.81-1.64-0.82-2.53c-0.05-8.39-0.05-16.79,0-25.18
			c0-0.76-0.68-1.98,0.76-2.27c1.19-0.24,1.52,0.78,1.97,1.57c4.1,7.06,8.19,14.12,12.52,21.59c1.97-3.35,3.78-6.39,5.56-9.45
			c2.31-3.98,4.58-7.97,6.9-11.94c0.53-0.92,0.86-2.23,2.44-1.66C127.97,56.8,128.1,57.01,128.23,57.22z"/>
		
			<linearGradient id="SVGID_00000113341784637795532170000017026524546968068266_" gradientUnits="userSpaceOnUse" x1="-41.3869" y1="75.3202" x2="434.4675" y2="75.3202">
			<stop  offset="0" style="stop-color:#FDC800"/>
			<stop  offset="0.0252" style="stop-color:#FCC400"/>
			<stop  offset="0.2496" style="stop-color:#F5A315"/>
			<stop  offset="0.4656" style="stop-color:#EF8728"/>
			<stop  offset="0.668" style="stop-color:#EB722E"/>
			<stop  offset="0.8517" style="stop-color:#E96431"/>
			<stop  offset="1" style="stop-color:#E95F32"/>
		</linearGradient>
		<path style="fill:url(#SVGID_00000113341784637795532170000017026524546968068266_);" d="M215.79,75.28
			c-0.01-6.11,3.37-10.17,9.43-11.32c4.59-0.88,9.54,2.27,11.33,7.03c0.84,2.22,0.58,3.55-2.01,4c-4.66,0.81-9.29,1.78-13.95,2.57
			c-2.18,0.37-2.52,1.27-1.31,3.01c3.13,4.48,8.18,5.67,13.99,2.38c0.59-0.34,1.07-1.62,1.96-0.5c0.93,1.18-0.33,1.71-0.97,2.11
			c-3.84,2.45-7.89,3.08-12.14,1.06C217.93,83.64,215.79,80.13,215.79,75.28z M217.84,74.38c-0.33,1.29,0.12,2.19,2.05,1.79
			c4.38-0.89,8.77-1.76,13.17-2.59c1.68-0.31,2.1-0.95,1.4-2.65c-1.59-3.87-5.83-5.58-9.5-4.98
			C221.01,66.6,217.9,70.24,217.84,74.38z"/>
		
			<linearGradient id="SVGID_00000087386636848165645740000005517475105284383896_" gradientUnits="userSpaceOnUse" x1="-41.3869" y1="79.6521" x2="434.4675" y2="79.6521">
			<stop  offset="0" style="stop-color:#FDC800"/>
			<stop  offset="0.0252" style="stop-color:#FCC400"/>
			<stop  offset="0.2496" style="stop-color:#F5A315"/>
			<stop  offset="0.4656" style="stop-color:#EF8728"/>
			<stop  offset="0.668" style="stop-color:#EB722E"/>
			<stop  offset="0.8517" style="stop-color:#E96431"/>
			<stop  offset="1" style="stop-color:#E95F32"/>
		</linearGradient>
		<path style="fill:url(#SVGID_00000087386636848165645740000005517475105284383896_);" d="M250.44,83.93
			c2.65-5.9,5.02-11.2,7.4-16.49c0.33-0.75,0.71-1.47,1.05-2.22c0.32-0.72,0.96-0.83,1.53-0.6c0.81,0.33,0.44,0.98,0.19,1.53
			c-1.1,2.42-2.19,4.84-3.29,7.26c-2.57,5.68-5.14,11.36-7.71,17.04c-1.71,3.78-6.28,6.43-10.28,3.73
			c-0.67-0.45-1.62-0.79-1.02-1.84c0.69-1.22,1.42-0.2,1.98,0.17c2.27,1.46,4.47,0.98,5.98-0.84c1.62-1.94,3.53-4.03,2.1-7.09
			c-2.77-5.92-5.45-11.89-8.08-17.88c-0.33-0.75-1.74-1.85-0.3-2.54c1.44-0.68,1.8,0.91,2.24,1.89c2.36,5.21,4.68,10.45,7.02,15.67
			C249.51,82.28,249.83,82.8,250.44,83.93z"/>
		
			<linearGradient id="SVGID_00000036252137975500743440000004112968654069566087_" gradientUnits="userSpaceOnUse" x1="-41.3869" y1="75.3216" x2="434.4675" y2="75.3216">
			<stop  offset="0" style="stop-color:#FDC800"/>
			<stop  offset="0.0252" style="stop-color:#FCC400"/>
			<stop  offset="0.2496" style="stop-color:#F5A315"/>
			<stop  offset="0.4656" style="stop-color:#EF8728"/>
			<stop  offset="0.668" style="stop-color:#EB722E"/>
			<stop  offset="0.8517" style="stop-color:#E96431"/>
			<stop  offset="1" style="stop-color:#E95F32"/>
		</linearGradient>
		<path style="fill:url(#SVGID_00000036252137975500743440000004112968654069566087_);" d="M135.69,75.3
			c0.01-6.55,4.84-11.68,11.1-11.34c7.21,0.4,11.12,4.22,11.19,11.41c0.07,7.42-4.89,11.25-11.25,11.32
			C140.28,86.76,135.68,81.91,135.69,75.3z M155.58,75.34c0.45-6.36-3.76-9.39-9.4-9.41c-4.48-0.02-8.68,3.91-8.46,10.03
			c0.16,4.5,4.15,8.88,8.45,8.84C152.7,84.73,156.27,80.31,155.58,75.34z"/>
		
			<linearGradient id="SVGID_00000120557710112385643240000003547873358713716890_" gradientUnits="userSpaceOnUse" x1="-41.3869" y1="70.7445" x2="434.4675" y2="70.7445">
			<stop  offset="0" style="stop-color:#FDC800"/>
			<stop  offset="0.0252" style="stop-color:#FCC400"/>
			<stop  offset="0.2496" style="stop-color:#F5A315"/>
			<stop  offset="0.4656" style="stop-color:#EF8728"/>
			<stop  offset="0.668" style="stop-color:#EB722E"/>
			<stop  offset="0.8517" style="stop-color:#E96431"/>
			<stop  offset="1" style="stop-color:#E95F32"/>
		</linearGradient>
		<path style="fill:url(#SVGID_00000120557710112385643240000003547873358713716890_);" d="M212.18,64.89
			c-2.48,2.32-4.79,4.62-7.25,6.75c-1.3,1.13-1.29,1.98-0.22,3.27c2.5,2.99,4.87,6.08,7.28,9.14c0.55,0.7,1.51,1.6,0.61,2.37
			c-1.2,1.04-1.67-0.4-2.26-1.13c-2.37-2.96-4.82-5.86-7.06-8.92c-1.19-1.63-1.94-1.44-3.35-0.23c-2.7,2.33-5.27,4.54-4.35,8.66
			c0.15,0.67,0.33,1.84-1.02,1.73c-1.07-0.09-0.79-1.04-0.79-1.68c-0.02-9.43-0.02-18.87,0-28.3c0-0.72-0.36-1.83,0.96-1.83
			c1.5,0,1.09,1.24,1.09,2.05c0.04,6.05,0.02,12.1,0.02,18.15c0,0.49,0.05,0.99,0.11,2.26c3.39-3.08,6.35-5.78,9.31-8.47
			c1.14-1.04,2.29-2.05,3.4-3.12C209.61,64.66,210.61,64.18,212.18,64.89z"/>
		
			<linearGradient id="SVGID_00000054982249355976208400000013202030946247165081_" gradientUnits="userSpaceOnUse" x1="-41.3869" y1="75.197" x2="434.4675" y2="75.197">
			<stop  offset="0" style="stop-color:#FDC800"/>
			<stop  offset="0.0252" style="stop-color:#FCC400"/>
			<stop  offset="0.2496" style="stop-color:#F5A315"/>
			<stop  offset="0.4656" style="stop-color:#EF8728"/>
			<stop  offset="0.668" style="stop-color:#EB722E"/>
			<stop  offset="0.8517" style="stop-color:#E96431"/>
			<stop  offset="1" style="stop-color:#E95F32"/>
		</linearGradient>
		<path style="fill:url(#SVGID_00000054982249355976208400000013202030946247165081_);" d="M164.79,75.05
			c0-2.97-0.03-5.94,0.02-8.91c0.01-0.72-0.44-1.79,0.75-2.02c1.26-0.25,1.13,0.77,1.26,1.57c0.33,2.2,1.34,1.12,2.24,0.43
			c2.41-1.84,5.18-2.68,8.09-2.07c5.11,1.07,7.08,2.61,7.58,9.02c0.3,3.87,0.08,7.78,0.06,11.68c0,0.79,0.12,1.8-1.09,1.81
			c-1.28,0-1-1.07-1.01-1.82c-0.03-3.79,0.03-7.58-0.03-11.37c-0.08-4.82-2.32-7.06-7.36-7.48c-3.68-0.31-7.18,2.29-8.04,6.11
			c-0.92,4.05-0.24,8.17-0.47,12.25c-0.05,0.87,0.57,2.38-1.14,2.27c-1.38-0.09-0.83-1.43-0.84-2.23
			C164.75,81.2,164.78,78.13,164.79,75.05z"/>
	</g>
	<g>
		
			<linearGradient id="SVGID_00000016783460524348639820000005877040193780529578_" gradientUnits="userSpaceOnUse" x1="-41.3869" y1="71.5346" x2="434.4675" y2="71.5346">
			<stop  offset="0" style="stop-color:#FDC800"/>
			<stop  offset="0.0252" style="stop-color:#FCC400"/>
			<stop  offset="0.2496" style="stop-color:#F5A315"/>
			<stop  offset="0.4656" style="stop-color:#EF8728"/>
			<stop  offset="0.668" style="stop-color:#EB722E"/>
			<stop  offset="0.8517" style="stop-color:#E96431"/>
			<stop  offset="1" style="stop-color:#E95F32"/>
		</linearGradient>
		<path style="fill:url(#SVGID_00000016783460524348639820000005877040193780529578_);" d="M267.09,86.12
			c-0.03-4.2-0.09-8.41-0.09-12.61c0-0.73-0.36-1.86,0.85-1.96c1.53-0.13,1.12,1.16,1.13,1.98c0.05,3.08,0.05,6.16,0.01,9.23
			c-0.02,1.23,0.3,1.97,1.69,1.92c3.48-0.14,6.97,0.26,10.45-0.29c8.17-1.28,11.71-6.13,11.18-15.38
			c-0.32-5.63-5.97-10.37-12.78-10.58c-3.69-0.11-7.39-0.02-11.08-0.04c-0.7,0-1.52,0.15-1.48-1c0.03-0.86,0.6-0.95,1.26-0.94
			c4.72,0.08,9.51-0.33,14.14,0.36c7.9,1.16,13.08,7.95,12.42,15.45c-0.86,9.77-7.36,13.87-15.4,14.3c-3.89,0.21-7.8,0.02-11.7,0.01
			C267.5,86.42,267.3,86.27,267.09,86.12z"/>
		
			<linearGradient id="SVGID_00000147199533440880300810000009212849380873223606_" gradientUnits="userSpaceOnUse" x1="-41.3869" y1="75.3382" x2="434.4675" y2="75.3382">
			<stop  offset="0" style="stop-color:#FDC800"/>
			<stop  offset="0.0252" style="stop-color:#FCC400"/>
			<stop  offset="0.2496" style="stop-color:#F5A315"/>
			<stop  offset="0.4656" style="stop-color:#EF8728"/>
			<stop  offset="0.668" style="stop-color:#EB722E"/>
			<stop  offset="0.8517" style="stop-color:#E96431"/>
			<stop  offset="1" style="stop-color:#E95F32"/>
		</linearGradient>
		<path style="fill:url(#SVGID_00000147199533440880300810000009212849380873223606_);" d="M310.76,86.73
			c-6.16-0.08-10.98-4.35-11.67-10.36c-0.61-5.36,3.08-10.76,8.61-12.13c4.95-1.23,10.73,1.34,12.6,7c0.8,2.4,0.1,3.32-2.13,3.73
			c-4.4,0.82-8.78,1.68-13.17,2.51c-3.28,0.62-3.62,1.44-1.39,3.99c3.3,3.78,7.9,4.52,13.23,1.49c0.61-0.35,1.09-1.59,1.98-0.54
			c0.97,1.14-0.25,1.63-0.9,2.13C315.82,86.16,313.38,86.77,310.76,86.73z M310.14,65.81c-4.89,0.06-8.9,4.27-8.63,8.93
			c0.07,1.2,0.41,1.7,1.63,1.46c4.58-0.9,9.15-1.83,13.74-2.66c1.7-0.31,1.81-1.11,1.25-2.5C316.88,67.94,313.63,65.77,310.14,65.81
			z"/>
		
			<linearGradient id="SVGID_00000146458027801828612220000000675503055861512838_" gradientUnits="userSpaceOnUse" x1="-41.3869" y1="75.6119" x2="434.4675" y2="75.6119">
			<stop  offset="0" style="stop-color:#FDC800"/>
			<stop  offset="0.0252" style="stop-color:#FCC400"/>
			<stop  offset="0.2496" style="stop-color:#F5A315"/>
			<stop  offset="0.4656" style="stop-color:#EF8728"/>
			<stop  offset="0.668" style="stop-color:#EB722E"/>
			<stop  offset="0.8517" style="stop-color:#E96431"/>
			<stop  offset="1" style="stop-color:#E95F32"/>
		</linearGradient>
		<path style="fill:url(#SVGID_00000146458027801828612220000000675503055861512838_);" d="M333.93,84.14
			c2.72-6.05,5.19-11.53,7.66-17.01c0.33-0.74,0.66-1.5,1.11-2.17c0.4-0.58,1.11-0.58,1.65-0.25c0.62,0.38,0.11,0.91-0.08,1.32
			c-2.89,6.42-5.76,12.86-8.73,19.24c-0.9,1.93-2.37,1.95-3.25,0.05c-2.97-6.39-5.82-12.83-8.69-19.26
			c-0.2-0.46-0.89-1.11,0.09-1.46c0.57-0.2,1.28-0.17,1.65,0.44c0.37,0.6,0.62,1.28,0.91,1.94
			C328.72,72.48,331.18,77.97,333.93,84.14z"/>
	</g>
	
		<linearGradient id="SVGID_00000178179174058657701250000018013208869851117754_" gradientUnits="userSpaceOnUse" x1="-41.3869" y1="75.3792" x2="434.4675" y2="75.3792">
		<stop  offset="0" style="stop-color:#FDC800"/>
		<stop  offset="0.0252" style="stop-color:#FCC400"/>
		<stop  offset="0.2496" style="stop-color:#F5A315"/>
		<stop  offset="0.4656" style="stop-color:#EF8728"/>
		<stop  offset="0.668" style="stop-color:#EB722E"/>
		<stop  offset="0.8517" style="stop-color:#E96431"/>
		<stop  offset="1" style="stop-color:#E95F32"/>
	</linearGradient>
	<path style="fill:url(#SVGID_00000178179174058657701250000018013208869851117754_);" d="M60.74,75.37
		c0,7.9-5.47,11.43-11.27,11.46c-4.76,0.02-10.45-4.94-10.36-11.62c0.08-6.17,4.61-11.35,10.73-11.28
		C56.65,64.01,60.74,67.39,60.74,75.37z M49.54,84.81c4.56,0.19,9.2-2.53,9.44-9.36c0.18-5.02-2.62-9.32-9.19-9.58
		c-5.02-0.2-9,4.72-8.83,9.01C41.19,80.65,44.52,84.78,49.54,84.81z"/>
	
		<linearGradient id="SVGID_00000144336956999656029890000017228846904558363277_" gradientUnits="userSpaceOnUse" x1="-41.3869" y1="75.2105" x2="434.4675" y2="75.2105">
		<stop  offset="0" style="stop-color:#FDC800"/>
		<stop  offset="0.0252" style="stop-color:#FCC400"/>
		<stop  offset="0.2496" style="stop-color:#F5A315"/>
		<stop  offset="0.4656" style="stop-color:#EF8728"/>
		<stop  offset="0.668" style="stop-color:#EB722E"/>
		<stop  offset="0.8517" style="stop-color:#E96431"/>
		<stop  offset="1" style="stop-color:#E95F32"/>
	</linearGradient>
	<path style="fill:url(#SVGID_00000144336956999656029890000017228846904558363277_);" d="M70.1,68.3
		c3.49-4.05,7.43-5.28,12.09-3.87c3.41,1.04,5.39,3.5,5.61,6.95c0.28,4.49,0.13,9.01,0.14,13.52c0,0.67,0.16,1.56-0.89,1.64
		c-1.32,0.1-1.1-0.94-1.11-1.71c-0.03-3.59,0.02-7.17-0.02-10.76c-0.07-5.49-2.63-8.23-7.64-8.23c-4.49,0-7.87,3.09-8.17,7.82
		c-0.22,3.57-0.04,7.17-0.11,10.76c-0.02,0.79,0.49,2.12-0.99,2.11c-1.43-0.02-0.98-1.32-0.99-2.13
		c-0.04-5.84-0.06-11.68,0.02-17.52c0.01-0.95-0.75-2.69,0.95-2.7c1.69-0.01,0.73,1.73,0.99,2.68C70.05,67.14,70.03,67.46,70.1,68.3
		z"/>
	
		<linearGradient id="SVGID_00000078013134825311848380000017981026510317377983_" gradientUnits="userSpaceOnUse" x1="-41.3869" y1="56.8739" x2="434.4675" y2="56.8739">
		<stop  offset="0" style="stop-color:#FDC800"/>
		<stop  offset="0.0252" style="stop-color:#FCC400"/>
		<stop  offset="0.2496" style="stop-color:#F5A315"/>
		<stop  offset="0.4656" style="stop-color:#EF8728"/>
		<stop  offset="0.668" style="stop-color:#EB722E"/>
		<stop  offset="0.8517" style="stop-color:#E96431"/>
		<stop  offset="1" style="stop-color:#E95F32"/>
	</linearGradient>
	<path style="fill:url(#SVGID_00000078013134825311848380000017981026510317377983_);" d="M32.39,56.79
		c0.07,0.95-0.13,1.66-1.23,1.69c-1.07,0.03-1.78-0.45-1.8-1.54c-0.02-1.07,0.63-1.65,1.7-1.67C32.12,55.25,32.47,55.88,32.39,56.79
		z"/>
	
		<linearGradient id="SVGID_00000052824209114494747020000003054201418872157075_" gradientUnits="userSpaceOnUse" x1="-41.3869" y1="75.3221" x2="434.4675" y2="75.3221">
		<stop  offset="0" style="stop-color:#FDC800"/>
		<stop  offset="0.0252" style="stop-color:#FCC400"/>
		<stop  offset="0.2496" style="stop-color:#F5A315"/>
		<stop  offset="0.4656" style="stop-color:#EF8728"/>
		<stop  offset="0.668" style="stop-color:#EB722E"/>
		<stop  offset="0.8517" style="stop-color:#E96431"/>
		<stop  offset="1" style="stop-color:#E95F32"/>
	</linearGradient>
	<path style="fill:url(#SVGID_00000052824209114494747020000003054201418872157075_);" d="M31.89,64.42
		c-0.69-0.68-1.35-0.96-1.88,0.17c0,7.15,0,14.31-0.01,21.46c0.52,1.15,1.18,0.85,1.88,0.18C32.32,78.96,32.32,71.69,31.89,64.42z"
		/>
	
		<linearGradient id="SVGID_00000144328887134420302670000015424943603881649843_" gradientUnits="userSpaceOnUse" x1="-41.3869" y1="56.8878" x2="434.4675" y2="56.8878">
		<stop  offset="0" style="stop-color:#FDC800"/>
		<stop  offset="0.0252" style="stop-color:#FCC400"/>
		<stop  offset="0.2496" style="stop-color:#F5A315"/>
		<stop  offset="0.4656" style="stop-color:#EF8728"/>
		<stop  offset="0.668" style="stop-color:#EB722E"/>
		<stop  offset="0.8517" style="stop-color:#E96431"/>
		<stop  offset="1" style="stop-color:#E95F32"/>
	</linearGradient>
	<path style="fill:url(#SVGID_00000144328887134420302670000015424943603881649843_);" d="M5.92,56.6
		c-0.16,0.19-0.31,0.39-0.47,0.58C5.33,56.76,5.49,56.57,5.92,56.6z"/>
	
		<linearGradient id="SVGID_00000148650729470452135990000001311208986384962994_" gradientUnits="userSpaceOnUse" x1="-41.3869" y1="56.892" x2="434.4675" y2="56.892">
		<stop  offset="0" style="stop-color:#FDC800"/>
		<stop  offset="0.0252" style="stop-color:#FCC400"/>
		<stop  offset="0.2496" style="stop-color:#F5A315"/>
		<stop  offset="0.4656" style="stop-color:#EF8728"/>
		<stop  offset="0.668" style="stop-color:#EB722E"/>
		<stop  offset="0.8517" style="stop-color:#E96431"/>
		<stop  offset="1" style="stop-color:#E95F32"/>
	</linearGradient>
	<path style="fill:url(#SVGID_00000148650729470452135990000001311208986384962994_);" d="M7.58,57.18
		c-0.15-0.19-0.31-0.39-0.46-0.58C7.55,56.58,7.7,56.77,7.58,57.18z"/>
	
		<linearGradient id="SVGID_00000013873451292393631030000009694760677530082432_" gradientUnits="userSpaceOnUse" x1="-41.3869" y1="56.9053" x2="434.4675" y2="56.9053">
		<stop  offset="0" style="stop-color:#FDC800"/>
		<stop  offset="0.0252" style="stop-color:#FCC400"/>
		<stop  offset="0.2496" style="stop-color:#F5A315"/>
		<stop  offset="0.4656" style="stop-color:#EF8728"/>
		<stop  offset="0.668" style="stop-color:#EB722E"/>
		<stop  offset="0.8517" style="stop-color:#E96431"/>
		<stop  offset="1" style="stop-color:#E95F32"/>
	</linearGradient>
	<path style="fill:url(#SVGID_00000013873451292393631030000009694760677530082432_);" d="M128.23,57.22
		c-0.13-0.21-0.27-0.42-0.4-0.62C128.23,56.64,128.38,56.83,128.23,57.22z"/>
	
		<linearGradient id="SVGID_00000145055406944891963600000001309410851011797910_" gradientUnits="userSpaceOnUse" x1="-41.3869" y1="61.8861" x2="434.4675" y2="61.8861">
		<stop  offset="0" style="stop-color:#FDC800"/>
		<stop  offset="0.0252" style="stop-color:#FCC400"/>
		<stop  offset="0.2496" style="stop-color:#F5A315"/>
		<stop  offset="0.4656" style="stop-color:#EF8728"/>
		<stop  offset="0.668" style="stop-color:#EB722E"/>
		<stop  offset="0.8517" style="stop-color:#E96431"/>
		<stop  offset="1" style="stop-color:#E95F32"/>
	</linearGradient>
	<path style="fill:url(#SVGID_00000145055406944891963600000001309410851011797910_);" d="M99.76,62.16
		c0.02-0.18,0.04-0.37,0.07-0.55c0.13,0.13,0.27,0.26,0.4,0.39C100.1,62.13,99.94,62.19,99.76,62.16z"/>
	
		<linearGradient id="SVGID_00000005245396041410140660000003377789696581550261_" gradientUnits="userSpaceOnUse" x1="-41.3869" y1="71.618" x2="434.4675" y2="71.618">
		<stop  offset="0" style="stop-color:#FDC800"/>
		<stop  offset="0.0252" style="stop-color:#FCC400"/>
		<stop  offset="0.2496" style="stop-color:#F5A315"/>
		<stop  offset="0.4656" style="stop-color:#EF8728"/>
		<stop  offset="0.668" style="stop-color:#EB722E"/>
		<stop  offset="0.8517" style="stop-color:#E96431"/>
		<stop  offset="1" style="stop-color:#E95F32"/>
	</linearGradient>
	<path style="fill:url(#SVGID_00000005245396041410140660000003377789696581550261_);" d="M22.9,84.69
		c-4.19-0.04-8.37-0.13-12.55,0.03c-2.15,0.08-2.77-0.6-2.74-2.74c0.09-8.26,0-16.53-0.02-24.79c-0.15-0.19-0.31-0.39-0.46-0.58
		c-0.4,0-0.8,0-1.2,0c-0.16,0.19-0.31,0.39-0.47,0.58c-0.02,9,0,18.01-0.1,27.01c-0.02,1.87,0.52,2.49,2.43,2.44
		c5.52-0.14,11.05-0.09,16.58-0.12c0.41,0.12,0.56-0.05,0.53-0.45C25.16,84.27,23.8,84.7,22.9,84.69z"/>
	
		<linearGradient id="SVGID_00000054976585794509793920000012823762344295790520_" gradientUnits="userSpaceOnUse" x1="-41.3869" y1="86.3585" x2="434.4675" y2="86.3585">
		<stop  offset="0" style="stop-color:#FDC800"/>
		<stop  offset="0.0252" style="stop-color:#FCC400"/>
		<stop  offset="0.2496" style="stop-color:#F5A315"/>
		<stop  offset="0.4656" style="stop-color:#EF8728"/>
		<stop  offset="0.668" style="stop-color:#EB722E"/>
		<stop  offset="0.8517" style="stop-color:#E96431"/>
		<stop  offset="1" style="stop-color:#E95F32"/>
	</linearGradient>
	<path style="fill:url(#SVGID_00000054976585794509793920000012823762344295790520_);" d="M267.09,86.12
		c0.2,0.15,0.41,0.3,0.61,0.45C267.32,86.66,267.12,86.52,267.09,86.12z"/>
</g>
</svg>
