<?xml version="1.0" encoding="utf-8"?>
<!-- Generator: Adobe Illustrator 27.1.1, SVG Export Plug-In . SVG Version: 6.00 Build 0)  -->
<svg version="1.1" id="Warstwa_1" xmlns="http://www.w3.org/2000/svg" xmlns:xlink="http://www.w3.org/1999/xlink" x="0px" y="0px"
	 viewBox="0 0 400 100" style="enable-background:new 0 0 400 100;" xml:space="preserve">
<style type="text/css">
	.st0{fill:url(#SVGID_1_);}
	.st1{fill:url(#SVGID_00000007430410050212690770000015735993706245393297_);}
	.st2{fill:url(#SVGID_00000031888575771797915960000004472728827578562726_);}
	.st3{fill:url(#SVGID_00000132057775976646931750000017670932247115760043_);}
	.st4{fill:url(#SVGID_00000127041542845622639110000011304841871827184521_);}
	.st5{fill:url(#SVGID_00000036229000306690674980000013042981416159844515_);}
	.st6{fill:url(#SVGID_00000034796712849755163420000001386889964559415229_);}
	.st7{fill:url(#SVGID_00000048486832662265948210000011688829844674293642_);}
	.st8{fill:url(#SVGID_00000083768621078510079490000000688498624769243568_);}
	.st9{fill:url(#SVGID_00000070797776173454973490000004354935500277663414_);}
	.st10{fill:url(#SVGID_00000076584724471756821190000002555774672586882197_);}
	.st11{fill:url(#SVGID_00000119806963167190450910000014597806061686673541_);}
	.st12{fill:url(#SVGID_00000005239128254892522380000002635377546403906476_);}
	.st13{fill:url(#SVGID_00000146466591485467552280000010416531777212477110_);}
	.st14{fill:url(#SVGID_00000042735808576264681930000009003477630621257888_);}
	.st15{fill:url(#SVGID_00000057848657398908428720000017546421532458723772_);}
	.st16{fill:url(#SVGID_00000121244784119616223360000009627744519887059345_);}
	.st17{fill:url(#SVGID_00000052805429289329814860000014505859703598657679_);}
	.st18{fill:url(#SVGID_00000109752177633721996920000009980425210037938108_);}
</style>
<g>
	<g>
		<linearGradient id="SVGID_1_" gradientUnits="userSpaceOnUse" x1="-49.834" y1="46.0212" x2="499.314" y2="46.0212">
			<stop  offset="0" style="stop-color:#FDC800"/>
			<stop  offset="0.0252" style="stop-color:#FCC400"/>
			<stop  offset="0.2496" style="stop-color:#F5A315"/>
			<stop  offset="0.4656" style="stop-color:#EF8728"/>
			<stop  offset="0.668" style="stop-color:#EB722E"/>
			<stop  offset="0.8517" style="stop-color:#E96431"/>
			<stop  offset="1" style="stop-color:#E95F32"/>
		</linearGradient>
		<path class="st0" d="M145.91,29.55c0.04,10.4,0.1,20.79,0.1,31.19c0,1.04,0.57,2.72-1.36,2.63c-1.87-0.09-1.18-1.76-1.19-2.78
			c-0.06-8.37-0.03-16.75-0.03-25.13c-1.56-0.22-1.62,1.04-2.01,1.72c-3.66,6.2-7.23,12.44-10.84,18.67
			c-2.3,3.98-2.31,3.97-4.74-0.13c-4.08-6.89-8.17-13.77-12.26-20.65c-0.16-0.15-0.31-0.3-0.47-0.45c-0.03,0.21-0.05,0.43-0.08,0.64
			c-0.02,8.39-0.02,16.77-0.11,25.16c-0.01,1.07,0.81,3.06-1.34,2.9c-1.7-0.13-0.94-1.9-0.94-2.92c-0.06-9.69-0.06-19.37,0-29.06
			c0.01-0.88-0.78-2.28,0.88-2.62c1.38-0.28,1.75,0.9,2.28,1.81c4.73,8.15,9.45,16.3,14.45,24.91c2.27-3.86,4.36-7.38,6.41-10.91
			c2.67-4.59,5.29-9.2,7.96-13.78c0.62-1.06,1-2.58,2.82-1.92C145.61,29.07,145.76,29.31,145.91,29.55z"/>
		
			<linearGradient id="SVGID_00000069391639579198845290000012392653901893606068_" gradientUnits="userSpaceOnUse" x1="-49.834" y1="50.4416" x2="499.314" y2="50.4416">
			<stop  offset="0" style="stop-color:#FDC800"/>
			<stop  offset="0.0252" style="stop-color:#FCC400"/>
			<stop  offset="0.2496" style="stop-color:#F5A315"/>
			<stop  offset="0.4656" style="stop-color:#EF8728"/>
			<stop  offset="0.668" style="stop-color:#EB722E"/>
			<stop  offset="0.8517" style="stop-color:#E96431"/>
			<stop  offset="1" style="stop-color:#E95F32"/>
		</linearGradient>
		<path style="fill:url(#SVGID_00000069391639579198845290000012392653901893606068_);" d="M246.95,50.4
			c-0.01-7.05,3.89-11.73,10.88-13.07c5.3-1.01,11.01,2.62,13.08,8.11c0.96,2.56,0.67,4.1-2.32,4.61
			c-5.38,0.93-10.72,2.06-16.1,2.97c-2.52,0.43-2.91,1.46-1.51,3.48c3.61,5.17,9.44,6.55,16.14,2.75c0.68-0.39,1.24-1.87,2.26-0.58
			c1.07,1.36-0.39,1.97-1.12,2.44c-4.43,2.82-9.11,3.55-14.01,1.22C249.42,60.04,246.96,55.99,246.95,50.4z M249.32,49.36
			c-0.38,1.49,0.13,2.52,2.37,2.07c5.06-1.03,10.12-2.04,15.2-2.99c1.94-0.36,2.42-1.1,1.62-3.06c-1.83-4.47-6.73-6.44-10.96-5.75
			C252.98,40.38,249.39,44.58,249.32,49.36z"/>
		
			<linearGradient id="SVGID_00000146495714623469981430000006553655949316251302_" gradientUnits="userSpaceOnUse" x1="-49.834" y1="55.4407" x2="499.314" y2="55.4407">
			<stop  offset="0" style="stop-color:#FDC800"/>
			<stop  offset="0.0252" style="stop-color:#FCC400"/>
			<stop  offset="0.2496" style="stop-color:#F5A315"/>
			<stop  offset="0.4656" style="stop-color:#EF8728"/>
			<stop  offset="0.668" style="stop-color:#EB722E"/>
			<stop  offset="0.8517" style="stop-color:#E96431"/>
			<stop  offset="1" style="stop-color:#E95F32"/>
		</linearGradient>
		<path style="fill:url(#SVGID_00000146495714623469981430000006553655949316251302_);" d="M286.94,60.38
			c3.06-6.81,5.79-12.92,8.54-19.03c0.39-0.86,0.82-1.7,1.21-2.56c0.37-0.83,1.1-0.96,1.77-0.69c0.94,0.38,0.51,1.13,0.22,1.77
			c-1.27,2.79-2.53,5.59-3.79,8.38c-2.97,6.56-5.93,13.11-8.9,19.66c-1.98,4.37-7.24,7.42-11.86,4.31
			c-0.77-0.52-1.86-0.91-1.17-2.12c0.8-1.41,1.63-0.23,2.29,0.2c2.62,1.68,5.15,1.13,6.91-0.97c1.87-2.23,4.07-4.65,2.42-8.18
			c-3.2-6.84-6.29-13.72-9.32-20.64c-0.38-0.87-2.01-2.14-0.35-2.93c1.66-0.79,2.07,1.05,2.58,2.18c2.72,6.02,5.4,12.06,8.11,18.08
			C285.86,58.47,286.23,59.07,286.94,60.38z"/>
		
			<linearGradient id="SVGID_00000154415639098267710770000007594461980349661359_" gradientUnits="userSpaceOnUse" x1="-49.834" y1="50.4432" x2="499.314" y2="50.4432">
			<stop  offset="0" style="stop-color:#FDC800"/>
			<stop  offset="0.0252" style="stop-color:#FCC400"/>
			<stop  offset="0.2496" style="stop-color:#F5A315"/>
			<stop  offset="0.4656" style="stop-color:#EF8728"/>
			<stop  offset="0.668" style="stop-color:#EB722E"/>
			<stop  offset="0.8517" style="stop-color:#E96431"/>
			<stop  offset="1" style="stop-color:#E95F32"/>
		</linearGradient>
		<path style="fill:url(#SVGID_00000154415639098267710770000007594461980349661359_);" d="M154.52,50.42
			c0.01-7.56,5.59-13.48,12.8-13.09c8.32,0.46,12.84,4.87,12.91,13.17c0.08,8.57-5.64,12.99-12.98,13.06
			C159.82,63.65,154.51,58.04,154.52,50.42z M177.47,50.46c0.52-7.34-4.33-10.83-10.84-10.86c-5.17-0.02-10.02,4.51-9.77,11.57
			c0.18,5.2,4.79,10.25,9.75,10.2C174.15,61.3,178.27,56.2,177.47,50.46z"/>
		
			<linearGradient id="SVGID_00000098929561725197865770000001415411089387390391_" gradientUnits="userSpaceOnUse" x1="-49.834" y1="45.1611" x2="499.314" y2="45.1611">
			<stop  offset="0" style="stop-color:#FDC800"/>
			<stop  offset="0.0252" style="stop-color:#FCC400"/>
			<stop  offset="0.2496" style="stop-color:#F5A315"/>
			<stop  offset="0.4656" style="stop-color:#EF8728"/>
			<stop  offset="0.668" style="stop-color:#EB722E"/>
			<stop  offset="0.8517" style="stop-color:#E96431"/>
			<stop  offset="1" style="stop-color:#E95F32"/>
		</linearGradient>
		<path style="fill:url(#SVGID_00000098929561725197865770000001415411089387390391_);" d="M242.79,38.4
			c-2.86,2.68-5.53,5.33-8.36,7.79c-1.5,1.31-1.49,2.29-0.25,3.77c2.88,3.44,5.62,7.01,8.4,10.54c0.64,0.81,1.74,1.85,0.71,2.74
			c-1.39,1.2-1.93-0.46-2.61-1.31c-2.73-3.42-5.56-6.77-8.14-10.3c-1.37-1.88-2.24-1.66-3.86-0.27c-3.11,2.68-6.08,5.24-5.02,10
			c0.17,0.77,0.38,2.12-1.18,1.99c-1.23-0.1-0.92-1.2-0.92-1.94c-0.02-10.89-0.02-21.77,0-32.66c0-0.84-0.42-2.11,1.1-2.12
			c1.73,0,1.26,1.43,1.26,2.37c0.04,6.98,0.02,13.96,0.03,20.94c0,0.57,0.05,1.14,0.12,2.61c3.91-3.56,7.33-6.67,10.75-9.78
			c1.31-1.2,2.65-2.37,3.92-3.61C239.83,38.14,240.98,37.59,242.79,38.4z"/>
		
			<linearGradient id="SVGID_00000003103317419680546250000003020778343246339511_" gradientUnits="userSpaceOnUse" x1="-49.834" y1="50.2994" x2="499.314" y2="50.2994">
			<stop  offset="0" style="stop-color:#FDC800"/>
			<stop  offset="0.0252" style="stop-color:#FCC400"/>
			<stop  offset="0.2496" style="stop-color:#F5A315"/>
			<stop  offset="0.4656" style="stop-color:#EF8728"/>
			<stop  offset="0.668" style="stop-color:#EB722E"/>
			<stop  offset="0.8517" style="stop-color:#E96431"/>
			<stop  offset="1" style="stop-color:#E95F32"/>
		</linearGradient>
		<path style="fill:url(#SVGID_00000003103317419680546250000003020778343246339511_);" d="M188.09,50.13
			c0-3.43-0.04-6.86,0.03-10.29c0.01-0.83-0.51-2.07,0.86-2.34c1.45-0.28,1.31,0.89,1.45,1.82c0.39,2.54,1.54,1.29,2.59,0.49
			c2.78-2.12,5.98-3.1,9.34-2.39c5.9,1.23,8.17,3.01,8.75,10.41c0.35,4.47,0.09,8.98,0.07,13.47c0,0.91,0.14,2.08-1.26,2.08
			c-1.48,0.01-1.16-1.24-1.16-2.1c-0.03-4.37,0.04-8.75-0.04-13.12c-0.1-5.57-2.68-8.14-8.49-8.64c-4.24-0.36-8.28,2.65-9.28,7.05
			c-1.06,4.67-0.27,9.43-0.54,14.14c-0.06,1.01,0.66,2.75-1.31,2.62c-1.59-0.11-0.95-1.65-0.97-2.57
			C188.05,57.23,188.09,53.68,188.09,50.13z"/>
	</g>
	<g>
		
			<linearGradient id="SVGID_00000072239356138209487630000005157465654159770525_" gradientUnits="userSpaceOnUse" x1="-49.834" y1="46.073" x2="499.314" y2="46.073">
			<stop  offset="0" style="stop-color:#FDC800"/>
			<stop  offset="0.0252" style="stop-color:#FCC400"/>
			<stop  offset="0.2496" style="stop-color:#F5A315"/>
			<stop  offset="0.4656" style="stop-color:#EF8728"/>
			<stop  offset="0.668" style="stop-color:#EB722E"/>
			<stop  offset="0.8517" style="stop-color:#E96431"/>
			<stop  offset="1" style="stop-color:#E95F32"/>
		</linearGradient>
		<path style="fill:url(#SVGID_00000072239356138209487630000005157465654159770525_);" d="M306.16,62.91
			c-0.04-4.85-0.1-9.71-0.1-14.56c0-0.85-0.42-2.14,0.98-2.26c1.76-0.15,1.29,1.34,1.31,2.28c0.06,3.55,0.06,7.11,0.01,10.66
			c-0.02,1.42,0.34,2.28,1.96,2.21c4.02-0.16,8.05,0.3,12.06-0.33c9.43-1.48,13.51-7.08,12.91-17.75
			c-0.37-6.5-6.89-11.97-14.75-12.21c-4.26-0.13-8.53-0.03-12.79-0.04c-0.81,0-1.75,0.17-1.71-1.15c0.03-1,0.69-1.09,1.45-1.08
			c5.44,0.09,10.97-0.38,16.31,0.41c9.12,1.34,15.1,9.17,14.34,17.82c-0.99,11.28-8.49,16.01-17.77,16.5
			c-4.49,0.24-9,0.02-13.5,0.01C306.63,63.25,306.4,63.08,306.16,62.91z"/>
		
			<linearGradient id="SVGID_00000140692839165407152610000005893472315213924027_" gradientUnits="userSpaceOnUse" x1="-49.834" y1="50.4623" x2="499.314" y2="50.4623">
			<stop  offset="0" style="stop-color:#FDC800"/>
			<stop  offset="0.0252" style="stop-color:#FCC400"/>
			<stop  offset="0.2496" style="stop-color:#F5A315"/>
			<stop  offset="0.4656" style="stop-color:#EF8728"/>
			<stop  offset="0.668" style="stop-color:#EB722E"/>
			<stop  offset="0.8517" style="stop-color:#E96431"/>
			<stop  offset="1" style="stop-color:#E95F32"/>
		</linearGradient>
		<path style="fill:url(#SVGID_00000140692839165407152610000005893472315213924027_);" d="M356.56,63.61
			c-7.11-0.09-12.68-5.02-13.47-11.95c-0.71-6.19,3.56-12.41,9.94-14c5.72-1.42,12.38,1.55,14.54,8.08
			c0.92,2.77,0.11,3.83-2.46,4.31c-5.07,0.94-10.13,1.94-15.2,2.9c-3.78,0.71-4.17,1.66-1.61,4.6c3.8,4.36,9.11,5.21,15.26,1.72
			c0.71-0.4,1.26-1.84,2.29-0.62c1.12,1.32-0.29,1.88-1.04,2.45C362.39,62.95,359.58,63.65,356.56,63.61z M355.84,39.47
			c-5.64,0.07-10.27,4.93-9.96,10.3c0.08,1.38,0.47,1.96,1.88,1.68c5.28-1.04,10.56-2.11,15.86-3.06c1.96-0.35,2.08-1.28,1.44-2.89
			C363.62,41.93,359.87,39.42,355.84,39.47z"/>
		
			<linearGradient id="SVGID_00000164488463416525711600000011635365606718402437_" gradientUnits="userSpaceOnUse" x1="-49.834" y1="50.7783" x2="499.314" y2="50.7783">
			<stop  offset="0" style="stop-color:#FDC800"/>
			<stop  offset="0.0252" style="stop-color:#FCC400"/>
			<stop  offset="0.2496" style="stop-color:#F5A315"/>
			<stop  offset="0.4656" style="stop-color:#EF8728"/>
			<stop  offset="0.668" style="stop-color:#EB722E"/>
			<stop  offset="0.8517" style="stop-color:#E96431"/>
			<stop  offset="1" style="stop-color:#E95F32"/>
		</linearGradient>
		<path style="fill:url(#SVGID_00000164488463416525711600000011635365606718402437_);" d="M383.29,60.62
			c3.14-6.98,5.99-13.31,8.84-19.63c0.39-0.85,0.76-1.73,1.29-2.5c0.46-0.67,1.28-0.67,1.9-0.29c0.72,0.44,0.13,1.05-0.09,1.53
			c-3.34,7.41-6.64,14.84-10.07,22.21c-1.03,2.22-2.73,2.25-3.75,0.06c-3.42-7.37-6.72-14.8-10.03-22.23
			c-0.24-0.53-1.03-1.28,0.11-1.68c0.66-0.23,1.48-0.19,1.91,0.51c0.43,0.7,0.72,1.48,1.05,2.23
			C377.28,47.16,380.11,53.5,383.29,60.62z"/>
	</g>
	
		<linearGradient id="SVGID_00000053532672592986387150000009345371161884844222_" gradientUnits="userSpaceOnUse" x1="-49.834" y1="50.5097" x2="499.314" y2="50.5097">
		<stop  offset="0" style="stop-color:#FDC800"/>
		<stop  offset="0.0252" style="stop-color:#FCC400"/>
		<stop  offset="0.2496" style="stop-color:#F5A315"/>
		<stop  offset="0.4656" style="stop-color:#EF8728"/>
		<stop  offset="0.668" style="stop-color:#EB722E"/>
		<stop  offset="0.8517" style="stop-color:#E96431"/>
		<stop  offset="1" style="stop-color:#E95F32"/>
	</linearGradient>
	<path style="fill:url(#SVGID_00000053532672592986387150000009345371161884844222_);" d="M68.03,50.5c0,9.12-6.31,13.19-13,13.22
		c-5.5,0.03-12.06-5.7-11.95-13.41c0.09-7.12,5.32-13.1,12.38-13.02C63.3,37.39,68.03,41.29,68.03,50.5z M55.1,61.39
		c5.27,0.22,10.61-2.92,10.89-10.8c0.2-5.79-3.03-10.75-10.61-11.05C49.6,39.31,45,44.99,45.2,49.94
		C45.46,56.59,49.3,61.36,55.1,61.39z"/>
	
		<linearGradient id="SVGID_00000137827695805298669100000016655568413119704997_" gradientUnits="userSpaceOnUse" x1="-49.834" y1="50.315" x2="499.314" y2="50.315">
		<stop  offset="0" style="stop-color:#FDC800"/>
		<stop  offset="0.0252" style="stop-color:#FCC400"/>
		<stop  offset="0.2496" style="stop-color:#F5A315"/>
		<stop  offset="0.4656" style="stop-color:#EF8728"/>
		<stop  offset="0.668" style="stop-color:#EB722E"/>
		<stop  offset="0.8517" style="stop-color:#E96431"/>
		<stop  offset="1" style="stop-color:#E95F32"/>
	</linearGradient>
	<path style="fill:url(#SVGID_00000137827695805298669100000016655568413119704997_);" d="M78.83,42.34
		c4.03-4.67,8.58-6.1,13.95-4.46c3.93,1.19,6.22,4.04,6.47,8.02c0.32,5.18,0.15,10.4,0.16,15.6c0,0.77,0.19,1.8-1.03,1.89
		c-1.53,0.12-1.27-1.09-1.28-1.97c-0.03-4.14,0.02-8.28-0.03-12.42c-0.08-6.34-3.04-9.49-8.81-9.5c-5.18,0-9.09,3.57-9.43,9.02
		c-0.26,4.12-0.05,8.28-0.13,12.41c-0.02,0.92,0.56,2.45-1.14,2.43c-1.65-0.02-1.13-1.53-1.14-2.46
		c-0.05-6.74-0.07-13.48,0.02-20.22c0.01-1.09-0.87-3.11,1.1-3.12c1.95-0.01,0.84,1.99,1.14,3.09C78.77,41,78.75,41.37,78.83,42.34z
		"/>
	
		<linearGradient id="SVGID_00000012474482270437887550000003238423878347365557_" gradientUnits="userSpaceOnUse" x1="-49.834" y1="29.1541" x2="499.314" y2="29.1541">
		<stop  offset="0" style="stop-color:#FDC800"/>
		<stop  offset="0.0252" style="stop-color:#FCC400"/>
		<stop  offset="0.2496" style="stop-color:#F5A315"/>
		<stop  offset="0.4656" style="stop-color:#EF8728"/>
		<stop  offset="0.668" style="stop-color:#EB722E"/>
		<stop  offset="0.8517" style="stop-color:#E96431"/>
		<stop  offset="1" style="stop-color:#E95F32"/>
	</linearGradient>
	<path style="fill:url(#SVGID_00000012474482270437887550000003238423878347365557_);" d="M35.31,29.05
		c0.08,1.1-0.15,1.91-1.42,1.95c-1.24,0.04-2.05-0.52-2.08-1.78c-0.03-1.23,0.73-1.91,1.97-1.92C34.99,27.28,35.4,28.01,35.31,29.05
		z"/>
	
		<linearGradient id="SVGID_00000147939962363448404080000008678650588979175041_" gradientUnits="userSpaceOnUse" x1="-49.834" y1="50.4437" x2="499.314" y2="50.4437">
		<stop  offset="0" style="stop-color:#FDC800"/>
		<stop  offset="0.0252" style="stop-color:#FCC400"/>
		<stop  offset="0.2496" style="stop-color:#F5A315"/>
		<stop  offset="0.4656" style="stop-color:#EF8728"/>
		<stop  offset="0.668" style="stop-color:#EB722E"/>
		<stop  offset="0.8517" style="stop-color:#E96431"/>
		<stop  offset="1" style="stop-color:#E95F32"/>
	</linearGradient>
	<path style="fill:url(#SVGID_00000147939962363448404080000008678650588979175041_);" d="M34.73,37.86
		c-0.8-0.79-1.56-1.11-2.17,0.19c0,8.26,0,16.51-0.01,24.77c0.6,1.33,1.37,0.98,2.17,0.21C35.23,54.64,35.23,46.25,34.73,37.86z"/>
	
		<linearGradient id="SVGID_00000011027055703813873740000017168313501199108993_" gradientUnits="userSpaceOnUse" x1="-49.834" y1="29.1701" x2="499.314" y2="29.1701">
		<stop  offset="0" style="stop-color:#FDC800"/>
		<stop  offset="0.0252" style="stop-color:#FCC400"/>
		<stop  offset="0.2496" style="stop-color:#F5A315"/>
		<stop  offset="0.4656" style="stop-color:#EF8728"/>
		<stop  offset="0.668" style="stop-color:#EB722E"/>
		<stop  offset="0.8517" style="stop-color:#E96431"/>
		<stop  offset="1" style="stop-color:#E95F32"/>
	</linearGradient>
	<path style="fill:url(#SVGID_00000011027055703813873740000017168313501199108993_);" d="M4.76,28.83
		c-0.18,0.22-0.36,0.45-0.54,0.67C4.08,29.03,4.26,28.8,4.76,28.83z"/>
	
		<linearGradient id="SVGID_00000052793007716320152450000017732349434017352586_" gradientUnits="userSpaceOnUse" x1="-49.834" y1="29.175" x2="499.314" y2="29.175">
		<stop  offset="0" style="stop-color:#FDC800"/>
		<stop  offset="0.0252" style="stop-color:#FCC400"/>
		<stop  offset="0.2496" style="stop-color:#F5A315"/>
		<stop  offset="0.4656" style="stop-color:#EF8728"/>
		<stop  offset="0.668" style="stop-color:#EB722E"/>
		<stop  offset="0.8517" style="stop-color:#E96431"/>
		<stop  offset="1" style="stop-color:#E95F32"/>
	</linearGradient>
	<path style="fill:url(#SVGID_00000052793007716320152450000017732349434017352586_);" d="M6.68,29.51
		c-0.18-0.22-0.35-0.45-0.53-0.67C6.64,28.81,6.82,29.04,6.68,29.51z"/>
	
		<linearGradient id="SVGID_00000134940514493084904930000001275314572118820517_" gradientUnits="userSpaceOnUse" x1="-49.834" y1="29.1903" x2="499.314" y2="29.1903">
		<stop  offset="0" style="stop-color:#FDC800"/>
		<stop  offset="0.0252" style="stop-color:#FCC400"/>
		<stop  offset="0.2496" style="stop-color:#F5A315"/>
		<stop  offset="0.4656" style="stop-color:#EF8728"/>
		<stop  offset="0.668" style="stop-color:#EB722E"/>
		<stop  offset="0.8517" style="stop-color:#E96431"/>
		<stop  offset="1" style="stop-color:#E95F32"/>
	</linearGradient>
	<path style="fill:url(#SVGID_00000134940514493084904930000001275314572118820517_);" d="M145.91,29.55
		c-0.15-0.24-0.31-0.48-0.46-0.72C145.91,28.88,146.08,29.1,145.91,29.55z"/>
	
		<linearGradient id="SVGID_00000057830328179032804190000014751723089227294348_" gradientUnits="userSpaceOnUse" x1="-49.834" y1="34.9383" x2="499.314" y2="34.9383">
		<stop  offset="0" style="stop-color:#FDC800"/>
		<stop  offset="0.0252" style="stop-color:#FCC400"/>
		<stop  offset="0.2496" style="stop-color:#F5A315"/>
		<stop  offset="0.4656" style="stop-color:#EF8728"/>
		<stop  offset="0.668" style="stop-color:#EB722E"/>
		<stop  offset="0.8517" style="stop-color:#E96431"/>
		<stop  offset="1" style="stop-color:#E95F32"/>
	</linearGradient>
	<path style="fill:url(#SVGID_00000057830328179032804190000014751723089227294348_);" d="M113.05,35.25
		c0.03-0.21,0.05-0.43,0.08-0.64c0.16,0.15,0.31,0.3,0.47,0.45C113.44,35.22,113.26,35.29,113.05,35.25z"/>
	
		<linearGradient id="SVGID_00000112609244656204443580000001226892266270990476_" gradientUnits="userSpaceOnUse" x1="-49.834" y1="46.1691" x2="499.314" y2="46.1691">
		<stop  offset="0" style="stop-color:#FDC800"/>
		<stop  offset="0.0252" style="stop-color:#FCC400"/>
		<stop  offset="0.2496" style="stop-color:#F5A315"/>
		<stop  offset="0.4656" style="stop-color:#EF8728"/>
		<stop  offset="0.668" style="stop-color:#EB722E"/>
		<stop  offset="0.8517" style="stop-color:#E96431"/>
		<stop  offset="1" style="stop-color:#E95F32"/>
	</linearGradient>
	<path style="fill:url(#SVGID_00000112609244656204443580000001226892266270990476_);" d="M24.36,61.26
		c-4.83-0.05-9.66-0.15-14.49,0.03c-2.48,0.09-3.19-0.7-3.17-3.16c0.11-9.54,0-19.08-0.03-28.61c-0.18-0.22-0.35-0.45-0.53-0.67
		c-0.46,0-0.92,0-1.38-0.01c-0.18,0.22-0.36,0.45-0.54,0.67c-0.03,10.39,0,20.78-0.12,31.17c-0.03,2.16,0.61,2.87,2.8,2.82
		c6.37-0.16,12.75-0.11,19.13-0.14c0.47,0.14,0.65-0.06,0.61-0.52C26.96,60.77,25.39,61.27,24.36,61.26z"/>
	
		<linearGradient id="SVGID_00000067197392852519209410000003604901803131009410_" gradientUnits="userSpaceOnUse" x1="-49.834" y1="63.18" x2="499.314" y2="63.18">
		<stop  offset="0" style="stop-color:#FDC800"/>
		<stop  offset="0.0252" style="stop-color:#FCC400"/>
		<stop  offset="0.2496" style="stop-color:#F5A315"/>
		<stop  offset="0.4656" style="stop-color:#EF8728"/>
		<stop  offset="0.668" style="stop-color:#EB722E"/>
		<stop  offset="0.8517" style="stop-color:#E96431"/>
		<stop  offset="1" style="stop-color:#E95F32"/>
	</linearGradient>
	<path style="fill:url(#SVGID_00000067197392852519209410000003604901803131009410_);" d="M306.16,62.91
		c0.23,0.17,0.47,0.34,0.7,0.51C306.42,63.53,306.19,63.36,306.16,62.91z"/>
</g>
</svg>
