<?xml version="1.0" encoding="utf-8"?>
<!-- Generator: Adobe Illustrator 27.1.1, SVG Export Plug-In . SVG Version: 6.00 Build 0)  -->
<svg version="1.1" id="Warstwa_1" xmlns="http://www.w3.org/2000/svg" xmlns:xlink="http://www.w3.org/1999/xlink" x="0px" y="0px"
	 viewBox="0 0 16 16" style="enable-background:new 0 0 16 16;" xml:space="preserve">
<style type="text/css">
	.st0{fill:url(#SVGID_1_);}
	.st1{fill:url(#SVGID_00000067222717936710117030000006557074393619311744_);}
	.st2{fill:url(#SVGID_00000183954627229439745140000012563548017849833119_);}
</style>
<g>
	<linearGradient id="SVGID_1_" gradientUnits="userSpaceOnUse" x1="-3.9241" y1="8" x2="18.8907" y2="8">
		<stop  offset="0" style="stop-color:#FDC800"/>
		<stop  offset="0.0252" style="stop-color:#FCC400"/>
		<stop  offset="0.2496" style="stop-color:#F5A315"/>
		<stop  offset="0.4656" style="stop-color:#EF8728"/>
		<stop  offset="0.668" style="stop-color:#EB722E"/>
		<stop  offset="0.8517" style="stop-color:#E96431"/>
		<stop  offset="1" style="stop-color:#E95F32"/>
	</linearGradient>
	<path class="st0" d="M9.39,5.96C9.4,7.25,9.41,8.54,9.41,9.82c0,0.13,0.07,0.34-0.17,0.33C9.01,10.14,9.09,9.93,9.09,9.8
		c-0.01-1.04,0-2.07,0-3.11c-0.19-0.03-0.2,0.13-0.25,0.21C8.38,7.67,7.94,8.45,7.5,9.22C7.21,9.71,7.21,9.71,6.91,9.2
		C6.41,8.35,5.9,7.5,5.39,6.64C5.37,6.63,5.35,6.61,5.33,6.59c0,0.03-0.01,0.05-0.01,0.08c0,1.04,0,2.08-0.01,3.11
		c0,0.13,0.1,0.38-0.17,0.36c-0.21-0.02-0.12-0.23-0.12-0.36c-0.01-1.2-0.01-2.4,0-3.6c0-0.11-0.1-0.28,0.11-0.32
		c0.17-0.03,0.22,0.11,0.28,0.22C6,7.09,6.59,8.1,7.21,9.17C7.49,8.69,7.75,8.25,8,7.82c0.33-0.57,0.65-1.14,0.99-1.71
		c0.08-0.13,0.12-0.32,0.35-0.24C9.36,5.9,9.37,5.93,9.39,5.96z"/>
	
		<linearGradient id="SVGID_00000005988669606220133050000016589597623567347077_" gradientUnits="userSpaceOnUse" x1="-2.7028" y1="8" x2="20.112" y2="8">
		<stop  offset="0" style="stop-color:#FDC800"/>
		<stop  offset="0.0252" style="stop-color:#FCC400"/>
		<stop  offset="0.2496" style="stop-color:#F5A315"/>
		<stop  offset="0.4656" style="stop-color:#EF8728"/>
		<stop  offset="0.668" style="stop-color:#EB722E"/>
		<stop  offset="0.8517" style="stop-color:#E96431"/>
		<stop  offset="1" style="stop-color:#E95F32"/>
	</linearGradient>
	<path style="fill:url(#SVGID_00000005988669606220133050000016589597623567347077_);" d="M11.1,10.08c0-0.6-0.01-1.2-0.01-1.8
		c0-0.1-0.05-0.27,0.12-0.28c0.22-0.02,0.16,0.17,0.16,0.28c0.01,0.44,0.01,0.88,0,1.32c0,0.18,0.04,0.28,0.24,0.27
		c0.5-0.02,1,0.04,1.49-0.04c1.17-0.18,1.67-0.88,1.6-2.2c-0.05-0.8-0.85-1.48-1.83-1.51c-0.53-0.02-1.06,0-1.58-0.01
		c-0.1,0-0.22,0.02-0.21-0.14c0-0.12,0.09-0.14,0.18-0.13c0.67,0.01,1.36-0.05,2.02,0.05c1.13,0.17,1.87,1.14,1.77,2.21
		c-0.12,1.4-1.05,1.98-2.2,2.04c-0.56,0.03-1.11,0-1.67,0C11.15,10.13,11.13,10.1,11.1,10.08z"/>
	
		<linearGradient id="SVGID_00000045600271329697565390000016395700279079571107_" gradientUnits="userSpaceOnUse" x1="-5.1455" y1="8" x2="17.6693" y2="8">
		<stop  offset="0" style="stop-color:#FDC800"/>
		<stop  offset="0.0252" style="stop-color:#FCC400"/>
		<stop  offset="0.2496" style="stop-color:#F5A315"/>
		<stop  offset="0.4656" style="stop-color:#EF8728"/>
		<stop  offset="0.668" style="stop-color:#EB722E"/>
		<stop  offset="0.8517" style="stop-color:#E96431"/>
		<stop  offset="1" style="stop-color:#E95F32"/>
	</linearGradient>
	<path style="fill:url(#SVGID_00000045600271329697565390000016395700279079571107_);" d="M0.73,5.85c0.06,0,0.11,0,0.17,0
		c0.02,0.03,0.04,0.06,0.07,0.08c0,1.18,0.02,2.36,0,3.54c0,0.31,0.09,0.4,0.39,0.39c0.6-0.02,1.2-0.01,1.79,0
		c0.13,0,0.32-0.06,0.28,0.2c-0.03,0.02-0.05,0.04-0.08,0.06c-0.79,0-1.58,0-2.37,0.02c-0.27,0.01-0.35-0.08-0.35-0.35
		c0.02-1.29,0.01-2.57,0.01-3.86C0.69,5.91,0.71,5.88,0.73,5.85z"/>
</g>
</svg>
