<?xml version="1.0" encoding="utf-8"?>
<!-- Generator: Adobe Illustrator 27.1.1, SVG Export Plug-In . SVG Version: 6.00 Build 0)  -->
<svg version="1.1" id="Warstwa_1" xmlns="http://www.w3.org/2000/svg" xmlns:xlink="http://www.w3.org/1999/xlink" x="0px" y="0px"
	 viewBox="0 0 48 48" style="enable-background:new 0 0 48 48;" xml:space="preserve">
<style type="text/css">
	.st0{fill:url(#SVGID_1_);}
	.st1{fill:url(#SVGID_00000067946185280052838200000011522694502814391698_);}
	.st2{fill:url(#SVGID_00000094578909239768548900000007136058721015573402_);}
</style>
<g>
	<linearGradient id="SVGID_1_" gradientUnits="userSpaceOnUse" x1="-14.5848" y1="24" x2="60.136" y2="24">
		<stop  offset="0" style="stop-color:#FDC800"/>
		<stop  offset="0.0252" style="stop-color:#FCC400"/>
		<stop  offset="0.2496" style="stop-color:#F5A315"/>
		<stop  offset="0.4656" style="stop-color:#EF8728"/>
		<stop  offset="0.668" style="stop-color:#EB722E"/>
		<stop  offset="0.8517" style="stop-color:#E96431"/>
		<stop  offset="1" style="stop-color:#E95F32"/>
	</linearGradient>
	<path class="st0" d="M29.03,17.32c0.02,4.22,0.04,8.43,0.04,12.65c0,0.42,0.23,1.1-0.55,1.07c-0.76-0.04-0.48-0.71-0.48-1.13
		c-0.02-3.39-0.01-6.79-0.01-10.19c-0.63-0.09-0.66,0.42-0.82,0.7c-1.48,2.51-2.93,5.04-4.39,7.57c-0.93,1.61-0.94,1.61-1.92-0.05
		c-1.65-2.79-3.31-5.58-4.97-8.37c-0.06-0.06-0.13-0.12-0.19-0.18c-0.01,0.09-0.02,0.17-0.03,0.26c-0.01,3.4-0.01,6.8-0.05,10.2
		c0,0.44,0.33,1.24-0.54,1.18c-0.69-0.05-0.38-0.77-0.38-1.18c-0.02-3.93-0.02-7.85,0-11.78c0-0.36-0.32-0.92,0.35-1.06
		c0.56-0.11,0.71,0.37,0.92,0.73c1.92,3.3,3.83,6.61,5.86,10.1c0.92-1.57,1.77-2.99,2.6-4.42c1.08-1.86,2.14-3.73,3.23-5.59
		c0.25-0.43,0.4-1.05,1.14-0.78C28.91,17.13,28.97,17.23,29.03,17.32z"/>
	
		<linearGradient id="SVGID_00000067217985311737720460000016460689235887138751_" gradientUnits="userSpaceOnUse" x1="-10.5848" y1="24" x2="64.136" y2="24">
		<stop  offset="0" style="stop-color:#FDC800"/>
		<stop  offset="0.0252" style="stop-color:#FCC400"/>
		<stop  offset="0.2496" style="stop-color:#F5A315"/>
		<stop  offset="0.4656" style="stop-color:#EF8728"/>
		<stop  offset="0.668" style="stop-color:#EB722E"/>
		<stop  offset="0.8517" style="stop-color:#E96431"/>
		<stop  offset="1" style="stop-color:#E95F32"/>
	</linearGradient>
	<path style="fill:url(#SVGID_00000067217985311737720460000016460689235887138751_);" d="M34.61,30.82
		c-0.02-1.97-0.04-3.93-0.04-5.9c0-0.34-0.17-0.87,0.4-0.92c0.72-0.06,0.52,0.54,0.53,0.93c0.02,1.44,0.02,2.88,0,4.32
		c-0.01,0.57,0.14,0.92,0.79,0.9c1.63-0.06,3.26,0.12,4.89-0.14c3.82-0.6,5.48-2.87,5.23-7.2c-0.15-2.64-2.79-4.85-5.98-4.95
		c-1.73-0.05-3.46-0.01-5.19-0.02c-0.33,0-0.71,0.07-0.69-0.47c0.01-0.4,0.28-0.44,0.59-0.44c2.21,0.04,4.45-0.15,6.61,0.17
		c3.7,0.54,6.12,3.72,5.81,7.23c-0.4,4.57-3.44,6.49-7.21,6.69c-1.82,0.1-3.65,0.01-5.47,0C34.8,30.96,34.71,30.89,34.61,30.82z"/>
	
		<linearGradient id="SVGID_00000078039915913570016600000002489901065208713090_" gradientUnits="userSpaceOnUse" x1="-18.5848" y1="24" x2="56.136" y2="24">
		<stop  offset="0" style="stop-color:#FDC800"/>
		<stop  offset="0.0252" style="stop-color:#FCC400"/>
		<stop  offset="0.2496" style="stop-color:#F5A315"/>
		<stop  offset="0.4656" style="stop-color:#EF8728"/>
		<stop  offset="0.668" style="stop-color:#EB722E"/>
		<stop  offset="0.8517" style="stop-color:#E96431"/>
		<stop  offset="1" style="stop-color:#E95F32"/>
	</linearGradient>
	<path style="fill:url(#SVGID_00000078039915913570016600000002489901065208713090_);" d="M0.67,16.97c0.19,0,0.37,0,0.56,0
		c0.07,0.09,0.14,0.18,0.22,0.27c0.01,3.87,0.05,7.73,0.01,11.6c-0.01,1,0.28,1.32,1.28,1.28c1.96-0.07,3.92-0.03,5.87-0.01
		c0.42,0,1.06-0.2,0.93,0.64c-0.08,0.07-0.17,0.14-0.25,0.21c-2.59,0.01-5.17-0.01-7.76,0.06c-0.89,0.02-1.14-0.27-1.13-1.14
		c0.05-4.21,0.04-8.43,0.05-12.64C0.52,17.15,0.6,17.06,0.67,16.97z"/>
</g>
</svg>
